<svg id="图层_1" width="800px" data-name="图层 1" xmlns="http://www.w3.org/2000/svg" viewBox="0 0 595.28 841.89"><defs><style>.cls-1{fill:#030303;}.cls-2{fill:#65d1f4;}.cls-3{fill:#04001a;}.cls-4{fill:#dd84ff;}.cls-5{fill:#fca12c;}.cls-6{fill:#fff;}</style></defs><path class="cls-1" d="M513.14,696.67c1-1.76,2-1.08,3.07-.14Z"/><path class="cls-2" d="M451.8,530.75c-.71-6.88-.9-13.82-1.25-20.73-.48-9.47-.86-18.94-1.36-28.41-.59-11.17-1.26-22.33-1.88-33.5-.45-8.19-.86-16.38-1.29-24.57q-1-18.68-1.94-37.34t-1.94-37.35c-.56-11.17-1.07-22.35-1.65-33.52a5,5,0,0,0-.61-2.42,52.67,52.67,0,0,0-4.13-5.67,8,8,0,0,0-5.6-2.74c-10.93-.91-21.86-1.87-32.79-2.8-14.75-1.26-29.5-2.55-44.25-3.75-3.69-.3-7.37-1-11.08.37a47.57,47.57,0,0,0-16,9.19c-5.92,5.32-10.44,11.58-11.78,19.65-.87,5.27-.07,10.2,3.33,14.52a12.23,12.23,0,0,0,8.49,5c16.08,1.92,32.15,4,48.21,6,3,.39,6,.87,9.12,1.32,0,3.72-.09,7,0,10.32.27,8.2.68,16.39,1,24.59s.41,16.2.69,24.3c.38,11,.88,21.94,1.25,32.91.29,8.42.42,16.84.68,25.26.14,4.26.45,8.51.6,12.77.09,2.64,0,5.28,0,8.34-1.68-.3-2.93-.43-4.11-.76-8-2.22-16-4.42-24-6.76a19.33,19.33,0,0,0-8.54-.56c-12.63,2-21.83,8.85-27.48,20.17-4.58,9.17-5.05,18.6-.07,27.93a7,7,0,0,0,4.19,3.6c26.8,9.27,53.57,18.66,80.37,27.95a16.57,16.57,0,0,0,5.63.87c13.43-.31,24.29-5.91,32.5-16.47C450.13,543.37,452.5,537.62,451.8,530.75Zm-45.94-209c.11,2.2.22,4.39.35,6.8,3.85.9,7.59.89,11.7,1,.14-2.09.25-3.92.37-5.68-2.07-1.27-2.07-1.27-4.67-.91-.2.83-.41,1.73-.63,2.64-1.67-.61-1.67-.61-1.4-4,2.14,0,4.32-.09,6.49.06a2,2,0,0,1,1.48,1.28c.29,2.49.35,5,.51,7.83a50.31,50.31,0,0,1-15.5-.94c-.23-2.47-.46-4.56-.61-6.66C403.87,322,404,322,405.86,321.74Zm-1.45,12.15c2.39-1.61,4.91-.74,7.28-.81a37.31,37.31,0,0,1,6.66.59c.69.1,1.75.79,1.83,1.32.35,2.48.42,5,.65,8.31L405,342C403.77,339.1,404.77,336.45,404.41,333.89Zm.17,17.15a5.44,5.44,0,0,1,1.67-.38c3.48.27,6.95.7,10.44.91,2.3.13,2.46-.17,2.41-2.54,0-1.15,0-2.31,0-4,.8.59,1.69.91,1.75,1.33.3,2.18.38,4.39.58,7-5.83.64-11.23-.79-16.7-1.15Zm2.14,5.07c2.15.37,4.35,1.58,6.38,1.31s4.07-.81,6.2-.42a2.45,2.45,0,0,1,2.38,2.75c0,2.19.34,4.38.59,7.17-6.1-.95-11.71-1-17.13-2.61-.14-2.26-.31-4.26-.37-6.26C404.73,356.78,405.43,355.9,406.72,356.11Zm-1.52,21.56c0-1.29,1.2-1.64,2.35-1.49,4.21.54,8.42,1.09,12.61,1.73a2.83,2.83,0,0,1,2.75,2.94c.1,2.72.34,5.44.57,8.87l-17.87-3.26C404.74,383.56,405.28,380.58,405.2,377.67Zm.55,13L423.24,394c.67,1.64.16,2.44-1.21,2.92-2.51.87-5,1.81-7.47,2.74-1.06.4-2.1.88-3.41,1.43,1.42,1.58,3.07,1.45,4.53,1.75,2.39.48,4.8.88,7.2,1.29,1.1.19,1.81.64,1.37,2.24L416.62,405c-2.92-.52-5.85-1-8.77-1.57-1-.17-2-.3-2-1.59s.94-1.76,2-2.11c2.11-.72,4.24-1.4,6.34-2.15,1.25-.44,2.47-1,3.7-1.49,0-.27-.07-.54-.11-.82-3.79-2.08-8.56-.9-12.15-3.57C405.49,391.62,405.63,391.29,405.75,390.65Zm-.08,16.08,2.45.17c0,2,0,3.94,0,5.83,0,2.84.45,3.34,3.15,3.82,1.83.33,2.39,0,2.53-1.83s0-3.6,0-5.53c1.67-.26,2.48.1,2.45,1.68s-.08,3.21,0,4.8c.13,1.82,4.11,3.71,5.47,2.58a3.06,3.06,0,0,0,.65-2c.15-2,.17-4,.26-6,0-.08.12-.15.38-.42.42.19,1.13.29,1.38.68a3.79,3.79,0,0,1,.37,1.84c.18,3.06.31,6.11.49,9.72l-18.83-4C405.21,414.26,406.14,410.54,405.67,406.73Zm.8,24.37,2.24.76c0,2.62,0,5.17,0,7.72,0,2.3,3.37,4.65,5.46,3.81a2,2,0,0,0,.93-1.46c.14-1.49.08-3,.09-4.48,0-1.15,0-2.3,0-3.88a20.58,20.58,0,0,1,9.43,2.09,3.52,3.52,0,0,1,1.64,2.53c.34,3.59.41,7.21.59,11-1.86.27-2.91-.2-3-2-.1-2.13-.06-4.27-.13-6.4a4.49,4.49,0,0,0-4.62-4.18c-1.09.1-1.42.82-1.44,1.76,0,1.39,0,2.78,0,4.17v3.79a9.74,9.74,0,0,1-2.9.29c-2.18-.5-4.32-1.2-6.44-1.9a2.55,2.55,0,0,1-1.85-2.68C406.49,438.49,406.47,434.88,406.47,431.1Zm.44,18.42c2,.14,2.3,1.18,2.3,2.45,0,2,0,4,0,6.08,0,3.07,0,3.13,2.89,4.08,1,.32,2,.54,3.08.82,1.09-2,.64-3.93.66-5.78.08-5.47,0-5.47,5.33-3.91.71.21,1.43.42,2.14.65,3.7,1.19,3.93,1.54,4.11,5.36.13,2.76.39,5.5.54,8.26a17.91,17.91,0,0,1-.13,2.17c-2.82-.68-2.85-.68-2.92-2.94-.07-1.92,0-3.84-.06-5.76-.05-4.15-1.56-5.46-6.47-5.19,0,1.42,0,2.87,0,4.33,0,1.7,0,3.41-.05,5.11-.05,1-.68,1.64-1.71,1.31-2.73-.88-5.48-1.75-8.12-2.86a3,3,0,0,1-1.49-2.16C406.83,457.63,406.91,453.72,406.91,449.52ZM407,472a30.56,30.56,0,0,1,.48-3.53c6.55,2.34,12.41,4.46,18.3,6.53a3.74,3.74,0,0,1,2.81,3.76c.13,3.49.45,7,.53,10.48.05,2.41-.66,2.89-2.88,2.12-5.21-1.8-10.42-3.62-15.59-5.54-3.06-1.13-3.51-1.92-3.55-5.21C407.07,477.71,407,474.84,407,472Zm.52,18.55a14.22,14.22,0,0,1,3,.3,67.41,67.41,0,0,1,6.81,2.7,6.28,6.28,0,0,1,2.17,2.12c1.34,1.92,4.69,2.77,6.69,1.57,2.2-1.33,3.47-.68,3.57,1.83a16.88,16.88,0,0,1-.21,1.91H420.8a16.33,16.33,0,0,0-.42,1.91c-.2,4.17-.2,4.17,3.76,5.82,1.47.61,2.92,1.28,4.42,1.82a3.14,3.14,0,0,1,2.24,3.93c-2.94,0-15.61-5-23.27-9.08Zm21.14,47.91c-2.29-.86-4.55-1.81-6.78-2.82-3.5-1.57-6.95-3.23-10.44-4.83-1.87-.86-3.22-2.19-3.32-4.3-.21-4.46-.26-8.93-.36-13.39a6.74,6.74,0,0,1,.2-1.17c2.17.13,2.71,1.3,2.67,3-.05,3.09,0,6.18-.11,9.27a3.18,3.18,0,0,0,1.93,3.34c4.64,2.14,9.28,4.28,13.94,6.38A5.12,5.12,0,0,0,428,534V520.27c2.05.1,3.13.78,3.2,2.66.18,4.68.47,9.35.55,14C431.73,538.56,430.52,539.11,428.67,538.43Z"/><path class="cls-3" d="M421.43,353.39c-5.83.64-11.23-.79-16.7-1.15l-.15-1.2a5.44,5.44,0,0,1,1.67-.38c3.48.27,6.95.7,10.44.91,2.3.13,2.46-.17,2.41-2.54,0-1.15,0-2.31,0-4,.8.59,1.69.91,1.75,1.33C421.15,348.57,421.23,350.78,421.43,353.39Z"/><path class="cls-3" d="M421.68,359.75A2.45,2.45,0,0,0,419.3,357c-2.13-.39-4.12.13-6.2.42s-4.23-.94-6.38-1.31c-1.29-.21-2,.67-2,1.94.06,2,.23,4,.37,6.26,5.42,1.59,11,1.66,17.13,2.61C422,364.13,421.7,361.94,421.68,359.75Zm-14.07,3.19c-1.16-1.2-1-2.85-.29-4.33h4.13c.21,1.6.41,3.09.62,4.6C410.24,364,408.66,364,407.61,362.94Zm11.91,1.54-4.94-.42v-4.93C419.6,358.61,420.12,359.12,419.52,364.48Z"/><path class="cls-3" d="M420.06,330.7a50.31,50.31,0,0,1-15.5-.94c-.23-2.47-.46-4.56-.61-6.66-.08-1.06.06-1.13,1.91-1.36.11,2.2.22,4.39.35,6.8,3.85.9,7.59.89,11.7,1,.14-2.09.25-3.92.37-5.68-2.07-1.27-2.07-1.27-4.67-.91-.2.83-.41,1.73-.63,2.64-1.67-.61-1.67-.61-1.4-4,2.14,0,4.32-.09,6.49.06a2,2,0,0,1,1.48,1.28C419.84,325.36,419.9,327.87,420.06,330.7Z"/><path class="cls-3" d="M420.18,335c-.08-.53-1.14-1.22-1.83-1.32a37.31,37.31,0,0,0-6.66-.59c-2.37.07-4.89-.8-7.28.81.36,2.56-.64,5.21.56,8.07l15.86,1.34C420.6,340,420.53,337.47,420.18,335Zm-4,6.36c-2.44-.14-4.88-.34-7.31-.65s-2.81-.65-2.87-3.2c0-.73.09-1.47.16-2.49,4.07-.73,8,.31,12.18.56.23,1.76.44,3.41.7,5.42A15.73,15.73,0,0,1,416.21,341.35Z"/><path class="cls-3" d="M422.91,380.85a2.83,2.83,0,0,0-2.75-2.94c-4.19-.64-8.4-1.19-12.61-1.73-1.15-.15-2.39.2-2.35,1.49.08,2.91-.46,5.89.41,8.79l17.87,3.26C423.25,386.29,423,383.57,422.91,380.85Zm-2,5.57c-.76.25-1.39.69-1.94.6-3.36-.51-6.72-1.06-10-1.8a2.71,2.71,0,0,1-1.47-1.84,13.19,13.19,0,0,1-.07-3.5c.05-1,.63-1.67,1.65-1.53,3.59.45,7.17.94,10.73,1.57.46.08,1,1.07,1.08,1.68C421,383.17,420.9,384.77,420.9,386.42Z"/><path class="cls-3" d="M424.25,406.33,416.62,405c-2.92-.52-5.85-1-8.77-1.57-1-.17-2-.3-2-1.59s.94-1.76,2-2.11c2.11-.72,4.24-1.4,6.34-2.15,1.25-.44,2.47-1,3.7-1.49,0-.27-.07-.54-.11-.82-3.79-2.08-8.56-.9-12.15-3.57-.07-.06.07-.39.19-1L423.24,394c.67,1.64.16,2.44-1.21,2.92-2.51.87-5,1.81-7.47,2.74-1.06.4-2.1.88-3.41,1.43,1.42,1.58,3.07,1.45,4.53,1.75,2.39.48,4.8.88,7.2,1.29C424,404.28,424.69,404.73,424.25,406.33Z"/><path class="cls-3" d="M426.87,449.22c-1.86.27-2.91-.2-3-2-.1-2.13-.06-4.27-.13-6.4a4.49,4.49,0,0,0-4.62-4.18c-1.09.1-1.42.82-1.44,1.76,0,1.39,0,2.78,0,4.17v3.79a9.74,9.74,0,0,1-2.9.29c-2.18-.5-4.32-1.2-6.44-1.9a2.55,2.55,0,0,1-1.85-2.68c0-3.61,0-7.22,0-11l2.24.76c0,2.62,0,5.17,0,7.72,0,2.3,3.37,4.65,5.46,3.81a2,2,0,0,0,.93-1.46c.14-1.49.08-3,.09-4.48,0-1.15,0-2.3,0-3.88a20.58,20.58,0,0,1,9.43,2.09,3.52,3.52,0,0,1,1.64,2.53C426.62,441.78,426.69,445.4,426.87,449.22Z"/><path class="cls-3" d="M427.8,469.7c-2.82-.68-2.85-.68-2.92-2.94-.07-1.92,0-3.84-.06-5.76-.05-4.15-1.56-5.46-6.47-5.19,0,1.42,0,2.87,0,4.33,0,1.7,0,3.41-.05,5.11-.05,1-.68,1.64-1.71,1.31-2.73-.88-5.48-1.75-8.12-2.86a3,3,0,0,1-1.49-2.16c-.15-3.91-.07-7.82-.07-12,2,.14,2.3,1.18,2.3,2.45,0,2,0,4,0,6.08,0,3.07,0,3.13,2.89,4.08,1,.32,2,.54,3.08.82,1.09-2,.64-3.93.66-5.78.08-5.47,0-5.47,5.33-3.91.71.21,1.43.42,2.14.65,3.7,1.19,3.93,1.54,4.11,5.36.13,2.76.39,5.5.54,8.26A17.91,17.91,0,0,1,427.8,469.7Z"/><path class="cls-3" d="M425.32,422.05l-18.83-4c-1.28-3.81-.35-7.53-.82-11.34l2.45.17c0,2,0,3.94,0,5.83,0,2.84.45,3.34,3.15,3.82,1.83.33,2.39,0,2.53-1.83s0-3.6,0-5.53c1.67-.26,2.48.1,2.45,1.68s-.08,3.21,0,4.8c.13,1.82,4.11,3.71,5.47,2.58a3.06,3.06,0,0,0,.65-2c.15-2,.17-4,.26-6,0-.08.12-.15.38-.42.42.19,1.13.29,1.38.68a3.79,3.79,0,0,1,.37,1.84C425,415.39,425.14,418.44,425.32,422.05Z"/><path class="cls-3" d="M428.6,478.73a3.74,3.74,0,0,0-2.81-3.76c-5.89-2.07-11.75-4.19-18.3-6.53A30.56,30.56,0,0,0,407,472c0,2.87.06,5.74.1,8.61,0,3.29.49,4.08,3.55,5.21,5.17,1.92,10.38,3.74,15.59,5.54,2.22.77,2.93.29,2.88-2.12C429.05,485.71,428.73,482.22,428.6,478.73Zm-7.21,7.81c-1.68-.62-3.37-1.26-5.06-1.9l-3-1.13c-4.68-1.75-4.15-1.43-4.08-6.14.11-5.69.11-5.69,5.51-3.78,2.8,1,5.58,2,8.4,2.94a3.8,3.8,0,0,1,2.9,4c0,.95,0,1.91,0,2.86C426.09,487.59,425.42,488,421.39,486.54Z"/><path class="cls-3" d="M428.56,510.5c-1.5-.54-2.95-1.21-4.42-1.82-4-1.65-4-1.65-3.76-5.82a16.33,16.33,0,0,1,.42-1.91h8.72a16.88,16.88,0,0,0,.21-1.91c-.1-2.51-1.37-3.16-3.57-1.83-2,1.2-5.35.35-6.69-1.57a6.28,6.28,0,0,0-2.17-2.12,67.41,67.41,0,0,0-6.81-2.7,14.22,14.22,0,0,0-3-.3v14.83c7.66,4.09,20.33,9,23.27,9.08A3.14,3.14,0,0,0,428.56,510.5Zm-11.77-5.16c-2.18.39-3.81-.91-5.54-1.87a1.66,1.66,0,0,1-.81-.93c-.44-2.56-.82-5.14.11-7.65C417.23,495.68,418.33,497.34,416.79,505.34Z"/><path class="cls-3" d="M431.7,537c0,1.61-1.18,2.16-3,1.48-2.29-.86-4.55-1.81-6.78-2.82-3.5-1.57-6.95-3.23-10.44-4.83-1.87-.86-3.22-2.19-3.32-4.3-.21-4.46-.26-8.93-.36-13.39a6.74,6.74,0,0,1,.2-1.17c2.17.13,2.71,1.3,2.67,3-.05,3.09,0,6.18-.11,9.27a3.18,3.18,0,0,0,1.93,3.34c4.64,2.14,9.28,4.28,13.94,6.38A5.12,5.12,0,0,0,428,534V520.27c2.05.1,3.13.78,3.2,2.66C431.33,527.61,431.62,532.28,431.7,537Z"/><path class="cls-4" d="M345.14,404.63a26.28,26.28,0,0,0-19.84,6.53c-11.6,10-23,20.35-34.47,30.55C285,446.88,279.16,452,273.4,457.25a3.78,3.78,0,0,1-4.35.88c-.59-.24-1.23-.37-1.84-.55L210.9,440.39q-18.83-5.75-37.64-11.51c-2.83-.86-3-1.87-.83-3.86,6.2-5.71,12.52-11.29,18.55-17.16,7-6.87,10.41-15.27,9-25.17-.72-4.94-3.28-8.9-8.21-10.57-5.18-1.77-10.32-1.06-14.45,2.52-7.57,6.57-14.83,13.49-22.22,20.27q-10.84,9.94-21.69,19.89c-5.5,5.05-11,10.08-16.45,15.2a14.82,14.82,0,0,0-3.12,4A34.66,34.66,0,0,0,110,447.76c-.36,7.19,1.82,13.31,10,16.11,47.41,16.27,94.69,32.93,142,49.41,6.55,2.28,12.66.59,17.61-3.71,23.58-20.48,47-41.2,70.41-61.84,2.15-1.9,4.63-3.58,6.33-5.83a31.17,31.17,0,0,0,6.38-17.44C362.65,413.08,355.78,405.47,345.14,404.63ZM132.86,434.77c-3,.57-4.58-.78-6.93-1.74,2.85-2.43,5.37-4.67,8-6.75a3.33,3.33,0,0,1,2.4-.39,35.13,35.13,0,0,1,4.14,1.36l-.24,1a30.36,30.36,0,0,1-3.12-1,3.33,3.33,0,0,0-4,.83c-1.5,1.46-3.2,2.74-5.14,4.37Zm6.48,3.14c.61-1,1.23-2.09,1.92-3.24-1.1-1.34-2.19-1.51-3.49-.35-.91.82-1.88,1.56-2.82,2.33l-.45-.47a8.78,8.78,0,0,1,1-1.29c2-1.75,4.07-3.42,6-5.19,1.22-1.09,2.38-1.6,4-.74a23.13,23.13,0,0,0,3.64,1.2,10.14,10.14,0,0,1-4.81,4.31c-1.66.62-2.75,1.37-3.25,3.07C140.91,438.35,140.34,438.81,139.34,437.91Zm8.41,3.64c-1.6-.5-3.14-1.22-5.43-2.15,3.32-2.77,6-5.12,8.87-7.32a3.2,3.2,0,0,1,2.39-.31c1.73.45,3.4,1.14,5.45,1.86a46.4,46.4,0,0,1-9.16,7.76A2.81,2.81,0,0,1,147.75,441.55Zm4.59,1.21c1.62-.92,3,0,4.19.55,2,.88,3.46.47,5-1.51L157,439.52c4.1-5.62,5.72-5.57,11.43-2.15l-.15.66a18.85,18.85,0,0,1-3.54-1c-2.25-1.11-3.84-.48-5.32,1.77l4.4,2.11C161,446,157.47,446.51,152.34,442.76Zm22.35-2.12c-2.08-1-3.66-.36-5.16,1.79l5.07,2.49c-5.51,5.86-5.51,5.27-12.88,1.66,1-.31,1.62-.74,2.17-.64a9.08,9.08,0,0,1,2.65,1.08c1.93,1.07,3.44.61,5-1.47l-4.67-2.37c3.14-5.34,5.17-5.68,12.66-2.28-.58,1.11-1.51,1.05-2.48.71C176.26,441.32,175.47,441,174.69,440.64Zm11.68,14.22c-1.78,1.14-3.86.63-8.8-2.1,3.31-2.81,6.51-5.59,9.82-8.23a3,3,0,0,1,2.33-.28c2.22.64,4.38,1.47,6.56,2.23,0,.23,0,.46,0,.69a7.38,7.38,0,0,1-2.19.29,13.15,13.15,0,0,1-3-1.06c-2-.89-3.48-.38-4.81,1.74l4.71,2.4c-1.73,1.57-3,.48-4.17,0-3-1.13-3-1.17-5.52,1.71Zm9.77,5a1.91,1.91,0,0,1-.39-1.64c.37-1.55.95-3,1.38-4.58a20.88,20.88,0,0,0,.37-2.33c-3.59,1.49-5.35,5.25-9.32,5.56a14.39,14.39,0,0,1,1.36-1.45c2.59-2.21,5.18-4.42,7.82-6.57,1-.86,2.2-1.93,3.62-.17-.75,2.43-1.53,4.92-2.49,8a16.55,16.55,0,0,0,2.3-1.12c2-1.46,3.85-3,5.82-4.47a6.63,6.63,0,0,1,1.83-.66l.41.83c-3.67,2.86-7.33,5.73-11,8.53A1.77,1.77,0,0,1,196.14,459.85Zm7.77,3.21c-.87-.38-1.73-.79-2.59-1.2-.09,0-.13-.16-.37-.51.82-.68,1.67-1.4,2.54-2.08,2.52-2,5.11-3.84,7.53-5.91a3.42,3.42,0,0,1,4-.56c2.13.91,4.33,1.64,7.33,2.76-2.83,2.34-5.05,4.27-7.37,6.08C209.88,465.66,209.86,465.64,203.91,463.06ZM227.56,472c-2.06-.79-4.13-1.53-7-2.59,4.39-3.29,8.1-6.11,11.86-8.87a3,3,0,0,1,2-.76,43.49,43.49,0,0,1,8.46,3,10.34,10.34,0,0,1-5.32,4.26,2.73,2.73,0,0,0-1.86,1.82A6.17,6.17,0,0,1,227.56,472Zm15.7,6c-2.67-1-5.32-2.06-8.48-3.3a23.27,23.27,0,0,1,2.08-2.25c2.9-2.33,5.81-4.65,8.78-6.88,1.14-.86,2.36-2.08,4-.44l-10.51,8.26c1.53,2.55,4.53,1.84,6.42,3.56A1.57,1.57,0,0,1,243.26,478Zm18.19,4.56a4.78,4.78,0,0,1-3.54.81c-3.43-1-6.74-2.43-10.23-3.73,1.38-3.2,4.34-4.16,6.37-6.09,1.43-1.38,3.33-2.26,4.92-3.49a3.9,3.9,0,0,1,3.89-.71c3.1,1.06,6.17,2.19,9.72,3.46a10.25,10.25,0,0,1-1.53,2.36C267.91,477.74,264.75,480.27,261.45,482.59Zm26.61-2.17c-2.25-.95-4.55-1.79-6.83-2.67-2.11-.81-4-.86-5.88.81-2.38,2.07-5.06,3.8-8.28,6.17,3.2,1.42,5.55,2.58,8,3.52,1.58.6,3.26-.4,5-2.72l-3.58-2c3.31-2.54,5.34.77,7.86.82.06.23.13.46.19.69-2,1.62-4,3.35-6.09,4.79a3.86,3.86,0,0,1-3,.41c-3.89-1.35-7.69-2.94-12.07-4.66a41.7,41.7,0,0,1,3.13-3.13c2.52-2,5.09-3.87,7.68-5.73a7,7,0,0,1,7.47-1c3,1.32,6.19,2.22,9.49,3.38C290.36,480.52,289.52,481,288.06,480.42Z"/><path d="M291.13,479.16c-.77,1.36-1.61,1.87-3.07,1.26-2.25-.95-4.55-1.79-6.83-2.67-2.11-.81-4-.86-5.88.81-2.38,2.07-5.06,3.8-8.28,6.17,3.2,1.42,5.55,2.58,8,3.52,1.58.6,3.26-.4,5-2.72l-3.58-2c3.31-2.54,5.34.77,7.86.82.06.23.13.46.19.69-2,1.62-4,3.35-6.09,4.79a3.86,3.86,0,0,1-3,.41c-3.89-1.35-7.69-2.94-12.07-4.66a41.7,41.7,0,0,1,3.13-3.13c2.52-2,5.09-3.87,7.68-5.73a7,7,0,0,1,7.47-1C284.64,477.1,287.83,478,291.13,479.16Z"/><path d="M262.86,469.38a3.9,3.9,0,0,0-3.89.71c-1.59,1.23-3.49,2.11-4.92,3.49-2,1.93-5,2.89-6.37,6.09,3.49,1.3,6.8,2.71,10.23,3.73a4.78,4.78,0,0,0,3.54-.81c3.3-2.32,6.46-4.85,9.6-7.39a10.25,10.25,0,0,0,1.53-2.36C269,471.57,266,470.44,262.86,469.38ZM259.55,481a3.66,3.66,0,0,1-2.67.34c-1.83-.46-3.58-1.22-5.85-2a22.54,22.54,0,0,1,2.36-2.65c1.72-1.41,3.59-2.63,5.32-4a5.31,5.31,0,0,1,5.9-.88c1.33.58,2.67,1.1,4.76,2C265.65,476.44,262.66,478.78,259.55,481Z"/><path d="M245.58,477a1.57,1.57,0,0,1-2.32,1c-2.67-1-5.32-2.06-8.48-3.3a23.27,23.27,0,0,1,2.08-2.25c2.9-2.33,5.81-4.65,8.78-6.88,1.14-.86,2.36-2.08,4-.44l-10.51,8.26C240.69,476,243.69,475.26,245.58,477Z"/><path d="M234.43,459.78a3,3,0,0,0-2,.76c-3.76,2.76-7.47,5.58-11.86,8.87,2.88,1.06,4.95,1.8,7,2.59a6.17,6.17,0,0,0,8.15-3.19,2.73,2.73,0,0,1,1.86-1.82,10.34,10.34,0,0,0,5.32-4.26A43.49,43.49,0,0,0,234.43,459.78Zm-9,9.14c1.74-3.21,3.38-3.75,7.52-.88C230.63,471.78,228.81,471,225.44,468.92Zm5.57-5c2.77-2.91,3.4-3,7.35-.69C236.19,466.66,234.37,466.83,231,464Z"/><path d="M215.07,452.8a3.42,3.42,0,0,0-4,.56c-2.42,2.07-5,3.94-7.53,5.91-.87.68-1.72,1.4-2.54,2.08.24.35.28.47.37.51.86.41,1.72.82,2.59,1.2,6,2.58,6,2.6,11.12-1.42,2.32-1.81,4.54-3.74,7.37-6.08C219.4,454.44,217.2,453.71,215.07,452.8Zm-1.61,7.88c-4,3.13-4,3.11-8.77.26a7.79,7.79,0,0,1,1.17-1.69c1.37-1.17,2.84-2.24,4.28-3.34,2.94-2.23,4.61-2.13,8,.59C217,458.38,215.1,459.4,213.46,460.68Z"/><path d="M208.85,451.25c-3.67,2.86-7.33,5.73-11,8.53a1.77,1.77,0,0,1-1.67.07,1.91,1.91,0,0,1-.39-1.64c.37-1.55.95-3,1.38-4.58a20.88,20.88,0,0,0,.37-2.33c-3.59,1.49-5.35,5.25-9.32,5.56a14.39,14.39,0,0,1,1.36-1.45c2.59-2.21,5.18-4.42,7.82-6.57,1-.86,2.2-1.93,3.62-.17-.75,2.43-1.53,4.92-2.49,8a16.55,16.55,0,0,0,2.3-1.12c2-1.46,3.85-3,5.82-4.47a6.63,6.63,0,0,1,1.83-.66Z"/><path d="M196.28,446.48c0,.23,0,.46,0,.69a7.38,7.38,0,0,1-2.19.29,13.15,13.15,0,0,1-3-1.06c-2-.89-3.48-.38-4.81,1.74l4.71,2.4c-1.73,1.57-3,.48-4.17,0-3-1.13-3-1.17-5.52,1.71l5.09,2.58c-1.78,1.14-3.86.63-8.8-2.1,3.31-2.81,6.51-5.59,9.82-8.23a3,3,0,0,1,2.33-.28C191.94,444.89,194.1,445.72,196.28,446.48Z"/><path d="M179.54,440.9c-.58,1.11-1.51,1.05-2.48.71-.8-.29-1.59-.61-2.37-1-2.08-1-3.66-.36-5.16,1.79l5.07,2.49c-5.51,5.86-5.51,5.27-12.88,1.66,1-.31,1.62-.74,2.17-.64a9.08,9.08,0,0,1,2.65,1.08c1.93,1.07,3.44.61,5-1.47l-4.67-2.37C170,437.84,172.05,437.5,179.54,440.9Z"/><path d="M168.44,437.37l-.15.66a18.85,18.85,0,0,1-3.54-1c-2.25-1.11-3.84-.48-5.32,1.77l4.4,2.11c-2.86,5-6.36,5.56-11.49,1.81,1.62-.92,3,0,4.19.55,2,.88,3.46.47,5-1.51L157,439.52C161.11,433.9,162.73,434,168.44,437.37Z"/><path d="M140.48,427.25l-.24,1a30.36,30.36,0,0,1-3.12-1,3.33,3.33,0,0,0-4,.83c-1.5,1.46-3.2,2.74-5.14,4.37l4.92,2.29c-3,.57-4.58-.78-6.93-1.74,2.85-2.43,5.37-4.67,8-6.75a3.33,3.33,0,0,1,2.4-.39A35.13,35.13,0,0,1,140.48,427.25Z"/><path d="M145.56,429c-1.61-.86-2.77-.35-4,.74-2,1.77-4,3.44-6,5.19a8.78,8.78,0,0,0-1,1.29l.45.47c.94-.77,1.91-1.51,2.82-2.33,1.3-1.16,2.39-1,3.49.35-.69,1.15-1.31,2.21-1.92,3.24,1,.9,1.57.44,1.8-.37.5-1.7,1.59-2.45,3.25-3.07a10.14,10.14,0,0,0,4.81-4.31A23.13,23.13,0,0,1,145.56,429Zm-5.3,3.18c2.78-3.09,3.55-3.25,7.39-1.33C145.05,433.92,143.8,434.11,140.26,432.14Z"/><path d="M153.58,431.77a3.2,3.2,0,0,0-2.39.31c-2.83,2.2-5.55,4.55-8.87,7.32,2.29.93,3.83,1.65,5.43,2.15a2.81,2.81,0,0,0,2.12-.16,46.4,46.4,0,0,0,9.16-7.76C157,432.91,155.31,432.22,153.58,431.77Zm-3.28,8c-1.89,1.44-3.28,0-5.3-1.09,2.47-2,4.6-3.9,6.86-5.59.94-.7,1.51-.41,4.82,1.52C154.38,436.49,152.39,438.2,150.3,439.78Z"/><path class="cls-5" d="M436,230.1c-.32-7.14-.59-14.27-1-21.4-.6-11.28-1.41-22.55-1.84-33.83-.22-5.78-3.19-9.4-8.07-11.61-6.8-3.08-17.27-.92-22.73,4.23-5.82,5.49-11.75,10.86-17.64,16.27q-14,12.87-28.06,25.74c-7.22,6.64-14.4,13.33-21.62,20s-14.3,13.12-21.45,19.68-14.44,13.29-21.66,19.93l-24.73,22.74-21.67,19.92c-6.84,6.28-13.65,12.58-20.51,18.83a16.26,16.26,0,0,0-5.38,12.83c.15,10.78.42,21.55.62,32.33.23,12.69.51,25.39.6,38.09a7,7,0,0,0,2.51,5.9,24.89,24.89,0,0,0,5.55,3.68c5.3,2.24,10.69,1.7,15.87-.48,8.92-3.74,14.78-10.6,19-19.1a23.44,23.44,0,0,0,2.44-13.33,72,72,0,0,1-.23-7.35q-.16-19.69-.32-39.39a6.44,6.44,0,0,0-.06-1.59c-.48-1.66.14-2.7,1.42-3.84,10.83-9.65,21.58-19.39,32.34-29.11q18.29-16.51,36.55-33,18.64-16.83,37.31-33.62c1.64-1.48,3.33-2.91,5.37-4.7a13.38,13.38,0,0,1,1.29,2.73,24.37,24.37,0,0,1,.27,3.82c.21,6,.53,11.93.57,17.89,0,4,2.14,6.86,5,9.2,5.42,4.44,11.88,4.95,18.24,3.41,14.83-3.59,25.12-13,32-26.39a7.35,7.35,0,0,0,.59-3.4C436.42,240.1,436.17,235.1,436,230.1ZM233.35,344.27l.72.39,3.37-2.47c-.82,2-1.75,2.9-4.62,4.34-.06-1.24-.16-2.36-.15-3.48a38.23,38.23,0,0,0,.13-5.75c-.54-3.93,1.54-6.14,4.8-8.16a3.22,3.22,0,0,1-1.83,2.64,5.12,5.12,0,0,0-2.38,4.28C233.25,338.79,233.35,341.53,233.35,344.27Zm12-7.84-.63,0-1.28-4.2c-4,1.62-1.55,5.35-3.07,8.4a22.12,22.12,0,0,1-.39-2.55c0-3,.06-6,0-9a4.43,4.43,0,0,1,1.78-4.15,41.81,41.81,0,0,0,3.5-3.36,25.42,25.42,0,0,1-.26,8.32c-.31,1.74-.46,3.31.52,4.9C245.65,335.21,245.35,335.9,245.3,336.43Zm6.35-4.77c-1.06.85-2.15,1.64-3.39,2.58-.29-.64-.61-1-.6-1.37.17-4.33.36-8.67.61-13a3,3,0,0,1,.68-1.7c1.52-1.55,3.14-3,4.72-4.51l.58.48c0,4-.12,8.06.05,12.08A6.24,6.24,0,0,1,251.65,331.66Zm5.07-5a11.12,11.12,0,0,1,1.06-2.54,14.47,14.47,0,0,1,2.15-1.89c2.66-2.22,2.73-2.42,2-6.69l-4.86,3.68c-1.14-8-1.27-8.59,6.5-13.79a8.76,8.76,0,0,1-1,2,10.17,10.17,0,0,1-2.33,2.16c-2.53,1.61-2.51,3.87-1.85,6.82l4.53-3.71C265.74,317.61,263.64,322.64,256.72,326.67Zm9.93-8.24L266,318a16.75,16.75,0,0,1,1.59-2.77,11.45,11.45,0,0,1,2.49-2c2.17-1.43,2.73-3.38,1.91-6.3l-5.09,3.77c-1.71-3.1-1.3-8,.94-10.33,1.69-1.74,3.55-3.31,5.41-5a2.24,2.24,0,0,1-.66,3.11,30.11,30.11,0,0,1-2.68,2.25c-2.31,1.54-2.6,3.63-1.86,6.54l5.2-3.86C275.91,309.22,273.79,313.93,266.65,318.43Zm16.17-13.79c-.22-2.69-.48-5.14-.61-7.6s-.07-4.68-.23-7a4.79,4.79,0,0,1,1.54-4.27c2.13-1.86,4.23-3.77,6.41-5.73a2.18,2.18,0,0,1-.69,3c-1.25,1-2.35,2.14-3.56,3.16-1.87,1.56-2.24,3.42-1.27,6.14l5.15-3.73.56.32a5.72,5.72,0,0,1-.74,2,13.14,13.14,0,0,1-2.69,2.23c-2.7,1.74-2.78,4.15-2,7.3l5.81-4.33C290.69,298.63,290.29,299.07,282.82,304.64ZM301.6,288l-6.17-7.32c-1.06,2.08-.59,3.83-.51,5.56.12,2.33.28,4.67.25,7,0,.66-.59,1.31-.9,2l-.64-.2q-.37-8.07-.74-16.13c-.07-1.42.62-2.4,2.18-3.25l6.1,7.48a15.08,15.08,0,0,0,.64-2.63c0-3.2,0-6.39,0-9.59,0-1.12-.3-2.36,1.37-3a4.69,4.69,0,0,1,.35,1.16c.1,5.22.16,10.44.25,15.65C303.77,286.14,303.7,287.49,301.6,288Zm17.16-17.39c-.08,1.51-.44,3.4-1.42,4.39-2.8,2.84-6,5.31-9.46,8.32-.25-3.07-.53-5.44-.61-7.82-.11-3.49-.1-7,0-10.47a3.07,3.07,0,0,1,.78-2c2.9-2.77,5.89-5.45,8.85-8.16l.77.28c.28,2.5.63,5,.83,7.5A64,64,0,0,1,318.76,270.6Zm25-19.89a5,5,0,0,1-1.66,3.3c-3,2.81-6.29,5.43-9.47,8.1a4,4,0,0,1-1.11.38c-.29-4.54-.41-9-.89-13.35-.54-5.06.59-9.14,5.2-11.95,1.42-.86,2.42-2.39,3.66-3.56a19.15,19.15,0,0,1,2.14-1.42c.83,3.77,1.6,7.1-.38,10.59C344.45,244.69,343.64,247.9,343.75,250.71ZM359.83,239c-2.75,2.17-5.31,4.57-8,6.84-.79.67-1.66,1.23-3,2.19a23.87,23.87,0,0,1-.9-3.54c-.29-3.38-.43-6.78-.67-10.18-.12-1.69-.37-3.37-.5-5.05a4,4,0,0,1,2.72-4.52c.47,5.87.93,11.5,1.42,17.56,4.4-1.48,6.29-5.53,10-7.26C361.64,236.62,361.32,237.81,359.83,239Zm18.71-16.08c-3.66,2.91-7.13,6.06-10.7,9.09-.64.54-1.34,1-2.36,1.78-.54-1.34-1.32-2.43-1.4-3.58q-.54-8.41-.72-16.85a4.36,4.36,0,0,1,1.14-2.8c1.89-2,4-3.82,6-5.71l7.26-6.81c1.48.77,2.15,1.39,2.26,2.83.37,4.76.86,9.52,1.57,14.24A7.62,7.62,0,0,1,378.54,222.91Zm26.68-22.7c-1,.94-2.17,1.73-3.22,2.63-4.07,3.44-8.09,6.93-12.18,10.34a20.51,20.51,0,0,1-3.05,1.67c-.5-3.54-1.1-6.44-1.28-9.37-.26-4.11-1.05-8.22-.29-12.39a7.06,7.06,0,0,1,2.35-4.37c2-1.73,4-3.5,6-5.32,3.26-3,6.48-6.14,9.86-9.35,1.25,1.95.59,3.24-.72,4.39q-4.44,3.92-8.9,7.81c-.64.56-1.27,1.15-1.91,1.71-2.71,2.37-4.22,5.08-3.59,8.93s.81,8,1.24,12.6c2.92-2.05,5.58-3.28,7.64-5.47a10.15,10.15,0,0,1,2.59-2.33c3.41-1.66,4.36-4.43,4-7.94l-.22-1.91c-3.15,0-4.37,3.2-7,4-.48-1.44-.64-2.63.68-3.72,2.79-2.3,5.51-4.67,8.56-7.26.62,3.55,1.21,6.73,1.71,9.93A5.86,5.86,0,0,1,405.22,200.21Z"/><path d="M234.07,344.66l3.37-2.47c-.82,2-1.75,2.9-4.62,4.34-.06-1.24-.16-2.36-.15-3.48a38.23,38.23,0,0,0,.13-5.75c-.54-3.93,1.54-6.14,4.8-8.16a3.22,3.22,0,0,1-1.83,2.64,5.12,5.12,0,0,0-2.38,4.28c-.14,2.73,0,5.47,0,8.21Z"/><path d="M245.43,334.84c-1-1.59-.83-3.16-.52-4.9a25.42,25.42,0,0,0,.26-8.32,41.81,41.81,0,0,1-3.5,3.36,4.43,4.43,0,0,0-1.78,4.15c.1,3,0,6,0,9a22.12,22.12,0,0,0,.39,2.55c1.52-3-1-6.78,3.07-8.4l1.28,4.2.63,0C245.35,335.9,245.65,335.21,245.43,334.84Zm-4-3.44c-1.13-4-.85-4.75,2.83-7C245.54,328.3,245,329.46,241.48,331.4Z"/><path d="M254.25,314.13l-.58-.48c-1.58,1.5-3.2,3-4.72,4.51a3,3,0,0,0-.68,1.7c-.25,4.34-.44,8.68-.61,13,0,.36.31.73.6,1.37,1.24-.94,2.33-1.73,3.39-2.58a6.24,6.24,0,0,0,2.65-5.45C254.13,322.19,254.25,318.16,254.25,314.13Zm-1.2,13.76c-.31,1.75-2.09,2.5-3.87,3.32a8.2,8.2,0,0,1-.51-1.8c0-2.34,0-4.68,0-7,0-3,1-4.25,4.56-5.6C253.42,320.57,253.7,324.26,253.05,327.89Z"/><path d="M256.72,326.67a11.12,11.12,0,0,1,1.06-2.54,14.47,14.47,0,0,1,2.15-1.89c2.66-2.22,2.73-2.42,2-6.69l-4.86,3.68c-1.14-8-1.27-8.59,6.5-13.79a8.76,8.76,0,0,1-1,2,10.17,10.17,0,0,1-2.33,2.16c-2.53,1.61-2.51,3.87-1.85,6.82l4.53-3.71C265.74,317.61,263.64,322.64,256.72,326.67Z"/><path d="M266.65,318.43,266,318a16.75,16.75,0,0,1,1.59-2.77,11.45,11.45,0,0,1,2.49-2c2.17-1.43,2.73-3.38,1.91-6.3l-5.09,3.77c-1.71-3.1-1.3-8,.94-10.33,1.69-1.74,3.55-3.31,5.41-5a2.24,2.24,0,0,1-.66,3.11,30.11,30.11,0,0,1-2.68,2.25c-2.31,1.54-2.6,3.63-1.86,6.54l5.2-3.86C275.91,309.22,273.79,313.93,266.65,318.43Z"/><path d="M282.82,304.64c-.22-2.69-.48-5.14-.61-7.6s-.07-4.68-.23-7a4.79,4.79,0,0,1,1.54-4.27c2.13-1.86,4.23-3.77,6.41-5.73a2.18,2.18,0,0,1-.69,3c-1.25,1-2.35,2.14-3.56,3.16-1.87,1.56-2.24,3.42-1.27,6.14l5.15-3.73.56.32a5.72,5.72,0,0,1-.74,2,13.14,13.14,0,0,1-2.69,2.23c-2.7,1.74-2.78,4.15-2,7.3l5.81-4.33C290.69,298.63,290.29,299.07,282.82,304.64Z"/><path d="M301.6,288l-6.17-7.32c-1.06,2.08-.59,3.83-.51,5.56.12,2.33.28,4.67.25,7,0,.66-.59,1.31-.9,2l-.64-.2q-.37-8.07-.74-16.13c-.07-1.42.62-2.4,2.18-3.25l6.1,7.48a15.08,15.08,0,0,0,.64-2.63c0-3.2,0-6.39,0-9.59,0-1.12-.3-2.36,1.37-3a4.69,4.69,0,0,1,.35,1.16c.1,5.22.16,10.44.25,15.65C303.77,286.14,303.7,287.49,301.6,288Z"/><path d="M318.45,262.65c-.2-2.51-.55-5-.83-7.5l-.77-.28c-3,2.71-6,5.39-8.85,8.16a3.07,3.07,0,0,0-.78,2c-.05,3.49-.06,7,0,10.47.08,2.38.36,4.75.61,7.82,3.49-3,6.66-5.48,9.46-8.32,1-1,1.34-2.88,1.42-4.39A64,64,0,0,0,318.45,262.65Zm-1.91,9.63a2.13,2.13,0,0,1-.47,1.45c-1.89,1.65-3.86,3.21-6.37,5.27-.34-2.71-.67-4.65-.81-6.6-.12-1.59.05-3.2-.05-4.79a6.25,6.25,0,0,1,2.38-5.33c1.25-1.09,2.59-2.07,4.3-3.41C316.89,263.77,316.54,268,316.54,272.28Z"/><path d="M341.24,242.8c2-3.49,1.21-6.82.38-10.59a19.15,19.15,0,0,0-2.14,1.42c-1.24,1.17-2.24,2.7-3.66,3.56-4.61,2.81-5.74,6.89-5.2,11.95.48,4.38.6,8.81.89,13.35a4,4,0,0,0,1.11-.38c3.18-2.67,6.42-5.29,9.47-8.1a5,5,0,0,0,1.66-3.3C343.64,247.9,344.45,244.69,341.24,242.8Zm-6.35-2.22c1.15-1,2.37-2,3.82-3.21,1.5,5.12-.44,8.67-5.21,10.5C331.88,245,332.59,242.65,334.89,240.58Zm-1,16.86a40.15,40.15,0,0,1-.53-4.68,2.93,2.93,0,0,1,1-1.86c1.69-1.55,3.48-3,5.54-4.75C341.2,252.65,339.91,255,333.91,257.44Z"/><path d="M359.83,239c-2.75,2.17-5.31,4.57-8,6.84-.79.67-1.66,1.23-3,2.19a23.87,23.87,0,0,1-.9-3.54c-.29-3.38-.43-6.78-.67-10.18-.12-1.69-.37-3.37-.5-5.05a4,4,0,0,1,2.72-4.52c.47,5.87.93,11.5,1.42,17.56,4.4-1.48,6.29-5.53,10-7.26C361.64,236.62,361.32,237.81,359.83,239Z"/><path d="M381.6,215.1c-.71-4.72-1.2-9.48-1.57-14.24-.11-1.44-.78-2.06-2.26-2.83l-7.26,6.81c-2,1.89-4.12,3.71-6,5.71a4.36,4.36,0,0,0-1.14,2.8q.18,8.43.72,16.85c.08,1.15.86,2.24,1.4,3.58,1-.77,1.72-1.24,2.36-1.78,3.57-3,7-6.18,10.7-9.09A7.62,7.62,0,0,0,381.6,215.1Zm-5.41,7.05c-2.5,2.27-5,4.51-7.59,6.79-1.78-.79-2-2.3-2.06-3.76-.27-3.28-.58-6.57-.6-9.86a6.64,6.64,0,0,1,1.1-4.16c2.44-2.77,5.25-5.23,7.95-7.77.25-.23.78-.16,1.63-.31.29,3.21.56,6,.8,8.88a27.63,27.63,0,0,0,.4,4.76A5,5,0,0,1,376.19,222.15Z"/><path d="M405.22,200.21c-1,.94-2.17,1.73-3.22,2.63-4.07,3.44-8.09,6.93-12.18,10.34a20.51,20.51,0,0,1-3.05,1.67c-.5-3.54-1.1-6.44-1.28-9.37-.26-4.11-1.05-8.22-.29-12.39a7.06,7.06,0,0,1,2.35-4.37c2-1.73,4-3.5,6-5.32,3.26-3,6.48-6.14,9.86-9.35,1.25,1.95.59,3.24-.72,4.39q-4.44,3.92-8.9,7.81c-.64.56-1.27,1.15-1.91,1.71-2.71,2.37-4.22,5.08-3.59,8.93s.81,8,1.24,12.6c2.92-2.05,5.58-3.28,7.64-5.47a10.15,10.15,0,0,1,2.59-2.33c3.41-1.66,4.36-4.43,4-7.94l-.22-1.91c-3.15,0-4.37,3.2-7,4-.48-1.44-.64-2.63.68-3.72,2.79-2.3,5.51-4.67,8.56-7.26.62,3.55,1.21,6.73,1.71,9.93A5.86,5.86,0,0,1,405.22,200.21Z"/><path class="cls-4" d="M495.78,428.34a43.43,43.43,0,0,0,0-4.72c-1.24-11.57-2.55-23.12-3.82-34.68q-2.51-22.59-5-45.19c-1.51-13.78-3.05-27.57-4.5-41.36a8.64,8.64,0,0,0-2-4.58c-6.87-8.71-13.68-17.48-20.57-26.18a17,17,0,0,1-3.17-6.21,34.24,34.24,0,0,1-1.1-14.88,19.37,19.37,0,0,1,2.17-6.28c1.76-3,4.46-3.12,6.72-.45,9.7,11.5,19.43,23,29,34.56,3.6,4.33,4.82,9.71,5.61,15.12,2,13.62,3.83,27.26,5.73,40.89l10.53,75.77q5.6,40.28,11.16,80.53a48,48,0,0,1-1.91,21.82,26,26,0,0,1-3.33,6.49c-1.34,1.93-2.69,2-4.7.74a11.35,11.35,0,0,1-3.27-2.93q-18.77-27.1-37.4-54.32c-2.71-4-3.6-8.64-4.54-13.24a75.91,75.91,0,0,1-1.1-25.77A28.69,28.69,0,0,1,473.93,412c1.68-2.7,3.62-3.66,6.13-2.74a7.27,7.27,0,0,1,3.14,2.49c3.35,4.69,6.52,9.5,9.82,14.23C493.63,426.82,494,428.09,495.78,428.34Z"/><path class="cls-2" d="M263.53,227.14c-1.32,1.14-2.16,1.73-2.84,2.47Q224.78,269,188.88,308.36a7.48,7.48,0,0,0-2.06,4.83c-.65,9.48-1.5,18.94-2.06,28.42a28.81,28.81,0,0,1-9,19.23,19,19,0,0,1-6.32,4.2,7.15,7.15,0,0,1-9.87-7.59c1.09-11.25,2.36-22.49,3.56-33.74.21-2,.56-4,.63-6,.19-6,3-10.85,6.73-15.21q30.73-35.62,61.55-71.17,19.78-22.87,39.58-45.75c5.07-5.85,10.74-11,17.82-14.34a32.19,32.19,0,0,1,8.51-2.58c4.3-.67,6.38,1.18,6.9,5.45,1.53,12.49,2.95,25,4.61,37.49a17.17,17.17,0,0,1-1.46,9.31c-4.47,10.41-12.12,17.93-21.76,23.56a28.08,28.08,0,0,1-12.67,4.09,17.42,17.42,0,0,1-3.82-.18c-4-.71-5.27-2.22-5.46-6.23-.17-3.73-.26-7.46-.41-11.19C263.83,229.9,263.69,228.89,263.53,227.14Z"/><path class="cls-5" d="M177.36,517c1.07.45,1.71.78,2.4,1q42.41,12.87,84.82,25.75a8.32,8.32,0,0,0,5.57-.16c7.83-2.81,15.64-5.71,23.58-8.17s15.17-.67,21.69,4.31a6.37,6.37,0,0,1,1.11,1.15c2.37,3,1.81,6-1.58,7.65-2,1-4.16,1.65-6.26,2.44-10,3.76-20,7.44-29.93,11.31a16.45,16.45,0,0,1-10.94.37q-19.09-5.43-38.18-10.82-51.73-14.65-103.47-29.32a50.5,50.5,0,0,1-7.86-2.67,15.84,15.84,0,0,1-5-3.81c-2.06-2.38-1.67-5.29.64-7.44a14,14,0,0,1,7.15-3.34c15.4-2.92,30.81-5.8,46.19-8.82A40.46,40.46,0,0,1,193.44,500a21.3,21.3,0,0,1,5.91,4.27c3.16,3.28,2,6.71-2.4,7.83-5.68,1.44-11.4,2.75-17.1,4.13C179.14,516.37,178.47,516.66,177.36,517Z"/><path class="cls-2" d="M416.79,505.34c-2.18.39-3.81-.91-5.54-1.87a1.66,1.66,0,0,1-.81-.93c-.44-2.56-.82-5.14.11-7.65C417.23,495.68,418.33,497.34,416.79,505.34Z"/><path class="cls-2" d="M426.11,483.42c0,4.17-.69,4.62-4.72,3.12-1.68-.62-3.37-1.26-5.06-1.9l-3-1.13c-4.68-1.75-4.15-1.43-4.08-6.14.11-5.69.11-5.69,5.51-3.78,2.8,1,5.58,2,8.4,2.94a3.8,3.8,0,0,1,2.9,4C426.09,481.51,426.11,482.47,426.11,483.42Z"/><path class="cls-2" d="M420.9,386.42c-.76.25-1.39.69-1.94.6-3.36-.51-6.72-1.06-10-1.8a2.71,2.71,0,0,1-1.47-1.84,13.19,13.19,0,0,1-.07-3.5c.05-1,.63-1.67,1.65-1.53,3.59.45,7.17.94,10.73,1.57.46.08,1,1.07,1.08,1.68C421,383.17,420.9,384.77,420.9,386.42Z"/><path class="cls-2" d="M419.52,364.48l-4.94-.42v-4.93C419.6,358.61,420.12,359.12,419.52,364.48Z"/><path class="cls-2" d="M412.07,363.21c-1.83.75-3.41.82-4.46-.27s-1-2.85-.29-4.33h4.13C411.66,360.21,411.86,361.7,412.07,363.21Z"/><path class="cls-2" d="M419.07,341a15.73,15.73,0,0,1-2.86.36c-2.44-.14-4.88-.34-7.31-.65s-2.81-.65-2.87-3.2c0-.73.09-1.47.16-2.49,4.07-.73,8,.31,12.18.56C418.6,337.33,418.81,339,419.07,341Z"/><path class="cls-4" d="M269.37,473.65c-3.72,2.79-6.71,5.13-9.82,7.3a3.66,3.66,0,0,1-2.67.34c-1.83-.46-3.58-1.22-5.85-2a22.54,22.54,0,0,1,2.36-2.65c1.72-1.41,3.59-2.63,5.32-4a5.31,5.31,0,0,1,5.9-.88C265.94,472.27,267.28,472.79,269.37,473.65Z"/><path class="cls-4" d="M233,468c-2.33,3.74-4.15,3-7.52.88C227.18,465.71,228.82,465.17,233,468Z"/><path class="cls-4" d="M238.36,463.27c-2.17,3.39-4,3.56-7.35.69C233.78,461.05,234.41,461,238.36,463.27Z"/><path class="cls-4" d="M218.1,456.5c-1.09,1.88-3,2.9-4.64,4.18-4,3.13-4,3.11-8.77.26a7.79,7.79,0,0,1,1.17-1.69c1.37-1.17,2.84-2.24,4.28-3.34C213.08,453.68,214.75,453.78,218.1,456.5Z"/><path class="cls-4" d="M156.68,434.62c-2.3,1.87-4.29,3.58-6.38,5.16-1.89,1.44-3.28,0-5.3-1.09,2.47-2,4.6-3.9,6.86-5.59C152.8,432.4,153.37,432.69,156.68,434.62Z"/><path class="cls-6" d="M140.94,432.06c2.39-2.53,2.39-2.53,5.44-1.26C145.26,433.74,144.17,434,140.94,432.06Z"/><path class="cls-5" d="M376.19,222.15c-2.5,2.27-5,4.51-7.59,6.79-1.78-.79-2-2.3-2.06-3.76-.27-3.28-.58-6.57-.6-9.86a6.64,6.64,0,0,1,1.1-4.16c2.44-2.77,5.25-5.23,7.95-7.77.25-.23.78-.16,1.63-.31.29,3.21.56,6,.8,8.88a27.63,27.63,0,0,0,.4,4.76A5,5,0,0,1,376.19,222.15Z"/><path class="cls-5" d="M333.91,257.44a40.15,40.15,0,0,1-.53-4.68,2.93,2.93,0,0,1,1-1.86c1.69-1.55,3.48-3,5.54-4.75C341.2,252.65,339.91,255,333.91,257.44Z"/><path class="cls-5" d="M333.5,247.87c-1.62-2.83-.91-5.22,1.39-7.29,1.15-1,2.37-2,3.82-3.21C340.21,242.49,338.27,246,333.5,247.87Z"/><path class="cls-5" d="M316.54,272.28a2.13,2.13,0,0,1-.47,1.45c-1.89,1.65-3.86,3.21-6.37,5.27-.34-2.71-.67-4.65-.81-6.6-.12-1.59.05-3.2-.05-4.79a6.25,6.25,0,0,1,2.38-5.33c1.25-1.09,2.59-2.07,4.3-3.41C316.89,263.77,316.54,268,316.54,272.28Z"/><path class="cls-5" d="M253.05,327.89c-.31,1.75-2.09,2.5-3.87,3.32a8.2,8.2,0,0,1-.51-1.8c0-2.34,0-4.68,0-7,0-3,1-4.25,4.56-5.6C253.42,320.57,253.7,324.26,253.05,327.89Z"/><path class="cls-5" d="M241.48,331.4c-1.13-4-.85-4.75,2.83-7C245.54,328.3,245,329.46,241.48,331.4Z"/><path class="cls-4" d="M147.65,430.81c-2.6,3.11-3.85,3.3-7.39,1.33C143,429.05,143.81,428.89,147.65,430.81Z"/></svg>
