<svg id="图层_1" data-name="图层 1" xmlns="http://www.w3.org/2000/svg" viewBox="0 0 595.28 841.89"><defs><style>.cls-1{fill:#030303;}</style></defs><path class="cls-1" d="M513.14,696.67c1-1.76,2-1.08,3.07-.14Z"/><path d="M359,491.29c0-3.06.08-5.7,0-8.34-.15-4.26-.47-8.51-.6-12.77-.26-8.42-.4-16.84-.68-25.26-.37-11-.88-21.94-1.25-32.91-.28-8.1-.42-16.2-.69-24.3s-.69-16.39-1-24.59c-.11-3.3,0-6.6,0-10.32-3.1-.45-6.1-.93-9.11-1.32-16.07-2-32.13-4.13-48.21-6.05a12.21,12.21,0,0,1-8.49-5c-3.4-4.32-4.21-9.25-3.34-14.52,1.34-8.07,5.86-14.33,11.78-19.65a47.71,47.71,0,0,1,16-9.19c3.71-1.34,7.39-.67,11.07-.37,14.76,1.2,29.51,2.49,44.26,3.75,10.93.93,21.85,1.89,32.78,2.8a8,8,0,0,1,5.6,2.74,51.34,51.34,0,0,1,4.13,5.67,4.92,4.92,0,0,1,.62,2.42c.57,11.17,1.08,22.35,1.65,33.52.62,12.45,1.29,24.9,1.93,37.35l1.95,37.34q.63,12.28,1.29,24.57c.61,11.17,1.29,22.33,1.88,33.5.49,9.47.88,18.94,1.36,28.41.35,6.91.54,13.85,1.24,20.73s-1.66,12.62-5.69,17.8c-8.2,10.56-19.06,16.16-32.49,16.47a16.57,16.57,0,0,1-5.63-.87c-26.8-9.29-53.57-18.68-80.38-28a7,7,0,0,1-4.18-3.6c-5-9.33-4.51-18.76.06-27.93,5.65-11.32,14.85-18.21,27.49-20.17a19.34,19.34,0,0,1,8.54.56c8,2.34,16,4.54,24,6.76C356.09,490.86,357.33,491,359,491.29Zm41.88,8.37a14.73,14.73,0,0,0,.21-1.91c-.1-2.51-1.37-3.16-3.57-1.83a5.55,5.55,0,0,1-6.69-1.57,6.19,6.19,0,0,0-2.17-2.12,65.59,65.59,0,0,0-6.81-2.7,14.12,14.12,0,0,0-2.95-.3v14.83c7.65,4.09,20.33,9.05,23.27,9.08.3-1.92-.3-3.24-2.25-3.93-1.5-.54-2.95-1.21-4.42-1.82-3.95-1.65-4-1.65-3.75-5.82a13,13,0,0,1,.42-1.91Zm-22-32.51a30.2,30.2,0,0,0-.47,3.53c0,2.87.05,5.74.09,8.61,0,3.29.49,4.08,3.55,5.21,5.17,1.92,10.38,3.74,15.59,5.54,2.22.77,2.94.29,2.89-2.12-.08-3.5-.41-7-.53-10.48a3.75,3.75,0,0,0-2.82-3.76C391.28,471.61,385.41,469.49,378.86,467.15Zm.49,43.48a8.2,8.2,0,0,0-.21,1.17c.1,4.46.16,8.93.37,13.39.09,2.11,1.45,3.44,3.32,4.3,3.48,1.6,6.94,3.26,10.44,4.83,2.23,1,4.49,2,6.78,2.82,1.84.68,3.06.13,3-1.48-.08-4.67-.37-9.34-.55-14-.07-1.88-1.16-2.56-3.2-2.66v13.74a5.07,5.07,0,0,1-1.55-.09c-4.66-2.1-9.3-4.24-13.95-6.38a3.19,3.19,0,0,1-1.93-3.34c.1-3.09.06-6.18.12-9.27C382.05,511.93,381.51,510.76,379.35,510.63Zm-1.06-62.4c0,4.2-.08,8.11.07,12a3,3,0,0,0,1.49,2.16c2.64,1.11,5.38,2,8.12,2.85,1,.34,1.66-.27,1.7-1.3.07-1.7.05-3.41.06-5.11,0-1.46,0-2.91,0-4.33,4.91-.27,6.41,1,6.46,5.19,0,1.92,0,3.84.06,5.76.08,2.26.11,2.26,2.93,2.94a17.91,17.91,0,0,0,.13-2.17c-.16-2.76-.41-5.5-.54-8.26-.19-3.82-.41-4.17-4.12-5.36-.71-.23-1.42-.44-2.14-.65-5.29-1.56-5.25-1.56-5.32,3.91,0,1.85.43,3.8-.66,5.78-1.09-.28-2.11-.5-3.09-.82-2.86-.95-2.89-1-2.89-4.08,0-2,0-4.05,0-6.08C380.59,449.41,380.29,448.37,378.29,448.23Zm8.29-16c0,1.58,0,2.73,0,3.88,0,1.49.05,3-.09,4.48a2,2,0,0,1-.94,1.46c-2.08.84-5.41-1.51-5.45-3.81-.05-2.55,0-5.1,0-7.72l-2.24-.76c0,3.78,0,7.39,0,11a2.57,2.57,0,0,0,1.86,2.68c2.12.7,4.26,1.4,6.43,1.9a9.83,9.83,0,0,0,2.91-.29c0-1.48,0-2.64,0-3.79,0-1.39,0-2.78,0-4.17,0-.94.35-1.66,1.43-1.76a4.5,4.5,0,0,1,4.63,4.18c.07,2.13,0,4.27.13,6.4.08,1.77,1.13,2.24,3,2-.18-3.82-.26-7.44-.6-11a3.54,3.54,0,0,0-1.63-2.53A20.62,20.62,0,0,0,386.58,432.28Zm10.11-11.52c-.17-3.61-.31-6.66-.48-9.72a3.91,3.91,0,0,0-.37-1.84c-.26-.39-1-.49-1.39-.68-.25.27-.38.34-.38.42-.08,2-.11,4-.25,6a3.06,3.06,0,0,1-.65,2c-1.36,1.13-5.34-.76-5.48-2.58-.11-1.59-.06-3.2,0-4.8s-.77-1.94-2.45-1.68c0,1.93.11,3.74,0,5.53s-.7,2.16-2.53,1.83c-2.69-.48-3.11-1-3.14-3.82,0-1.89,0-3.79,0-5.83l-2.44-.17c.47,3.81-.47,7.53.81,11.34ZM389.08,394l.12.82c-1.24.5-2.45,1.05-3.7,1.49-2.1.75-4.23,1.43-6.34,2.15-1,.35-2.06.73-2,2.11s1.1,1.42,2,1.59c2.93.54,5.85,1.05,8.78,1.57l7.63,1.35c.43-1.6-.27-2.05-1.37-2.24-2.4-.41-4.81-.81-7.2-1.29-1.46-.3-3.11-.17-4.54-1.75,1.32-.55,2.35-1,3.42-1.43,2.48-.93,5-1.87,7.46-2.74,1.38-.48,1.88-1.28,1.21-2.92l-17.48-3.31c-.13.64-.27,1-.2,1C380.53,393.06,385.3,391.88,389.08,394Zm5.78-5.53c-.23-3.43-.48-6.15-.57-8.87a2.84,2.84,0,0,0-2.76-2.94c-4.19-.64-8.4-1.19-12.6-1.73-1.15-.15-2.39.2-2.36,1.49.08,2.91-.46,5.89.42,8.79Zm-1.22-22.8c-.24-2.79-.56-5-.58-7.17a2.45,2.45,0,0,0-2.38-2.75c-2.14-.39-4.12.13-6.21.42s-4.22-.94-6.38-1.31c-1.28-.21-2,.67-1.95,1.94.07,2,.24,4,.38,6.26C381.93,364.61,387.55,364.68,393.64,365.63ZM392.2,342c-.22-3.31-.29-5.83-.65-8.31-.08-.53-1.13-1.22-1.82-1.32a37.39,37.39,0,0,0-6.66-.59c-2.38.07-4.9-.8-7.28.81.36,2.56-.65,5.21.56,8.07Zm-16.26-13.54a50.31,50.31,0,0,0,15.5.94c-.16-2.83-.22-5.34-.51-7.83a2.05,2.05,0,0,0-1.48-1.28c-2.17-.15-4.36-.06-6.49-.06-.27,3.41-.27,3.41,1.4,4,.21-.91.43-1.81.63-2.64,2.59-.36,2.59-.36,4.66.91-.11,1.76-.23,3.59-.36,5.68-4.11-.07-7.85-.06-11.71-1-.12-2.41-.23-4.6-.35-6.8-1.84.23-2,.3-1.91,1.36C375.48,323.91,375.71,326,375.94,328.47Zm0,21.28.15,1.2c5.48.36,10.87,1.79,16.7,1.15-.19-2.61-.28-4.82-.58-7-.06-.42-.94-.74-1.75-1.33,0,1.66,0,2.82,0,4,0,2.37-.11,2.67-2.42,2.54-3.48-.21-6.95-.64-10.43-.91A5.43,5.43,0,0,0,376,349.75Z"/><path d="M334,423.17a31.08,31.08,0,0,1-6.37,17.44c-1.71,2.25-4.18,3.93-6.34,5.83-23.45,20.64-46.82,41.36-70.41,61.84-4.94,4.3-11.06,6-17.6,3.71-47.34-16.48-94.61-33.14-142-49.41-8.14-2.8-10.31-8.92-10-16.11A34.48,34.48,0,0,1,85.2,432.7a15.06,15.06,0,0,1,3.13-4c5.43-5.12,11-10.15,16.44-15.2q10.85-10,21.7-19.89c7.39-6.78,14.65-13.7,22.22-20.27,4.13-3.58,9.26-4.29,14.44-2.52,4.94,1.67,7.5,5.63,8.21,10.57,1.43,9.9-2,18.3-9,25.17-6,5.87-12.35,11.45-18.55,17.16-2.17,2-2,3,.83,3.86q18.81,5.79,37.64,11.51l56.32,17.19c.61.18,1.25.31,1.84.55a3.78,3.78,0,0,0,4.35-.88c5.76-5.23,11.61-10.37,17.43-15.54,11.47-10.2,22.86-20.5,34.46-30.55a26.32,26.32,0,0,1,19.85-6.53C327.15,404.18,334,411.79,334,423.17Zm-95.58,60.27c3.22-2.37,5.9-4.1,8.27-6.17,1.91-1.67,3.78-1.62,5.89-.81,2.28.88,4.58,1.72,6.83,2.67,1.46.61,2.29.1,3.07-1.26-3.31-1.16-6.49-2.06-9.49-3.38a7,7,0,0,0-7.47,1c-2.6,1.86-5.17,3.76-7.68,5.73a39.83,39.83,0,0,0-3.14,3.13c4.38,1.72,8.19,3.31,12.08,4.66a3.84,3.84,0,0,0,3-.41c2.14-1.44,4.08-3.17,6.1-4.79l-.19-.69c-2.52-.05-4.55-3.36-7.86-.82l3.57,2c-1.74,2.32-3.43,3.32-5,2.72C244,486,241.64,484.86,238.45,483.44Zm-19.39-5.06c3.49,1.3,6.8,2.71,10.23,3.73a4.74,4.74,0,0,0,3.53-.81c3.3-2.32,6.46-4.85,9.6-7.39a10.59,10.59,0,0,0,1.54-2.36c-3.55-1.27-6.63-2.4-9.73-3.46a3.88,3.88,0,0,0-3.88.71c-1.59,1.23-3.49,2.11-4.93,3.49C223.4,474.22,220.43,475.18,219.06,478.38Zm-27.14-10.26c2.88,1.06,5,1.8,7,2.59,3.25,1.25,6.92,0,8.15-3.19A2.74,2.74,0,0,1,209,465.7a10.38,10.38,0,0,0,5.32-4.26,43.72,43.72,0,0,0-8.46-2.95,3,3,0,0,0-2,.76C200,462,196.31,464.83,191.92,468.12Zm1.86-13.85c-3-1.12-5.21-1.85-7.33-2.76a3.42,3.42,0,0,0-4,.56c-2.42,2.07-5,3.94-7.53,5.91-.88.68-1.72,1.4-2.54,2.08.24.35.28.47.36.51.86.41,1.72.82,2.6,1.2,6,2.58,6,2.6,11.12-1.42C188.72,458.54,191,456.61,193.78,454.27ZM180.23,450l-.42-.83a6.68,6.68,0,0,0-1.82.66c-2,1.45-3.87,3-5.83,4.47a15.47,15.47,0,0,1-2.3,1.12l2.5-8c-1.43-1.76-2.57-.69-3.62.17-2.64,2.15-5.24,4.36-7.83,6.57a15.63,15.63,0,0,0-1.36,1.45c4-.31,5.74-4.07,9.33-5.56a23.51,23.51,0,0,1-.37,2.33c-.44,1.53-1,3-1.38,4.58a1.94,1.94,0,0,0,.38,1.64,1.77,1.77,0,0,0,1.67-.07C172.9,455.69,176.56,452.82,180.23,450Zm-17.89-.71-4.71-2.4c1.34-2.12,2.83-2.63,4.81-1.74a13.32,13.32,0,0,0,3,1.06,7.34,7.34,0,0,0,2.19-.29l0-.69c-2.19-.76-4.35-1.59-6.57-2.23a3,3,0,0,0-2.32.28c-3.31,2.64-6.51,5.42-9.83,8.23,4.94,2.73,7,3.24,8.81,2.1L152.66,451c2.49-2.88,2.48-2.84,5.52-1.71C159.38,449.73,160.61,450.82,162.34,449.25ZM146,443.63l-5.07-2.49c1.5-2.15,3.07-2.75,5.16-1.79.77.36,1.56.68,2.37,1,1,.34,1.89.4,2.47-.71-7.49-3.4-9.52-3.06-12.65,2.28l4.67,2.37c-1.58,2.08-3.08,2.54-5,1.47a9.19,9.19,0,0,0-2.65-1.08c-.56-.1-1.21.33-2.17.64C140.47,448.9,140.47,449.49,146,443.63Zm60.18,29.81c3.16,1.24,5.8,2.3,8.47,3.3a1.58,1.58,0,0,0,2.33-1.05c-1.89-1.72-4.89-1-6.43-3.56L221,463.87c-1.66-1.64-2.89-.42-4,.44-3,2.23-5.89,4.55-8.79,6.88A23.43,23.43,0,0,0,206.16,473.44Zm-66.49-36.7.14-.66c-5.71-3.42-7.33-3.47-11.42,2.15l4.48,2.28c-1.51,2-3,2.39-5,1.51-1.24-.55-2.58-1.47-4.19-.55,5.13,3.75,8.62,3.19,11.48-1.81l-4.39-2.11c1.48-2.25,3.07-2.88,5.32-1.77A18.44,18.44,0,0,0,139.67,436.74Zm-26,1.37c2.3.93,3.83,1.65,5.43,2.15a2.83,2.83,0,0,0,2.13-.16,46.4,46.4,0,0,0,9.16-7.76c-2.06-.72-3.72-1.41-5.46-1.86a3.18,3.18,0,0,0-2.38.31C119.73,433,117,435.34,113.69,438.11Zm-3-1.49c1,.9,1.57.44,1.81-.37.49-1.7,1.58-2.45,3.25-3.07a10.18,10.18,0,0,0,4.81-4.31,23.29,23.29,0,0,1-3.65-1.2c-1.6-.86-2.77-.35-4,.74-2,1.77-4,3.44-6,5.19a7.62,7.62,0,0,0-1,1.29l.45.47c.94-.77,1.91-1.51,2.82-2.33,1.29-1.16,2.38-1,3.48.35Zm.91-9.68.23-1a34.53,34.53,0,0,0-4.14-1.36,3.3,3.3,0,0,0-2.39.39c-2.65,2.08-5.17,4.32-8,6.75,2.36,1,4,2.31,6.93,1.74l-4.91-2.3c1.93-1.62,3.63-2.9,5.14-4.36a3.33,3.33,0,0,1,4-.83A28.92,28.92,0,0,0,111.62,426.94Z"/><path d="M350,236.56c-2,1.79-3.73,3.22-5.37,4.7q-18.68,16.8-37.31,33.62-18.3,16.5-36.55,33C260,317.64,249.2,327.38,238.37,337c-1.28,1.14-1.89,2.18-1.42,3.84a6,6,0,0,1,.06,1.59q.17,19.69.33,39.39a69.24,69.24,0,0,0,.22,7.35,23.35,23.35,0,0,1-2.44,13.33c-4.18,8.5-10,15.36-19,19.1-5.19,2.18-10.58,2.72-15.88.48a24.83,24.83,0,0,1-5.54-3.68,7,7,0,0,1-2.51-5.9c-.1-12.7-.37-25.4-.61-38.09-.19-10.78-.47-21.55-.62-32.33a16.26,16.26,0,0,1,5.38-12.83c6.87-6.25,13.68-12.55,20.51-18.83l21.67-19.92,24.73-22.74L285,247.86q10.71-9.84,21.45-19.68c7.22-6.64,14.4-13.33,21.62-20q14-12.89,28.06-25.74c5.89-5.41,11.82-10.78,17.64-16.27,5.45-5.15,15.93-7.31,22.72-4.23,4.88,2.21,7.85,5.83,8.07,11.61.43,11.28,1.25,22.55,1.84,33.83.38,7.13.65,14.26,1,21.4.22,5,.48,10,.62,15a7.23,7.23,0,0,1-.6,3.4c-6.9,13.35-17.18,22.8-32,26.39-6.37,1.54-12.83,1-18.25-3.41-2.86-2.34-5-5.15-5-9.2-.05-6-.36-11.92-.57-17.89a24.38,24.38,0,0,0-.28-3.82A13.26,13.26,0,0,0,350,236.56Zm8.19-23a20,20,0,0,0,3.05-1.67c4.09-3.41,8.12-6.9,12.18-10.34,1.06-.9,2.21-1.69,3.23-2.63a5.86,5.86,0,0,0,2.19-5.39c-.51-3.2-1.1-6.38-1.72-9.93-3,2.59-5.76,5-8.55,7.26-1.33,1.09-1.17,2.28-.68,3.72,2.66-.83,3.89-4.06,7-4,.09.87.15,1.39.21,1.91.39,3.51-.56,6.28-4,7.94a10.11,10.11,0,0,0-2.58,2.33c-2.06,2.19-4.73,3.42-7.64,5.47-.44-4.65-.59-8.66-1.24-12.6s.88-6.56,3.59-8.93c.64-.56,1.26-1.15,1.91-1.71l8.9-7.81c1.31-1.15,2-2.44.71-4.39-3.38,3.21-6.59,6.31-9.85,9.35-2,1.82-4,3.59-6,5.32a7.06,7.06,0,0,0-2.35,4.37c-.77,4.17,0,8.28.28,12.39C357.05,207.12,357.64,210,358.14,213.56Zm-9-16.82-7.27,6.81c-2,1.89-4.11,3.71-6,5.71a4.42,4.42,0,0,0-1.14,2.8c.13,5.62.36,11.24.73,16.85.07,1.15.85,2.24,1.4,3.58,1-.77,1.72-1.24,2.36-1.78,3.56-3,7-6.18,10.7-9.09a7.64,7.64,0,0,0,3.06-7.81c-.71-4.72-1.2-9.48-1.57-14.24C351.29,198.13,350.63,197.51,349.15,196.74ZM313,230.92a18.86,18.86,0,0,0-2.13,1.42c-1.25,1.17-2.25,2.7-3.66,3.56-4.62,2.81-5.75,6.89-5.2,11.95.47,4.38.6,8.81.89,13.35a4,4,0,0,0,1.11-.38c3.18-2.67,6.41-5.29,9.46-8.1a5,5,0,0,0,1.67-3.3c-.11-2.81.69-6-2.51-7.91C314.59,238,313.82,234.69,313,230.92Zm-24,22.94-.77-.28c-3,2.71-5.94,5.39-8.84,8.16a3.07,3.07,0,0,0-.78,2c-.06,3.49-.06,7,0,10.47.07,2.38.36,4.75.61,7.82,3.48-3,6.66-5.48,9.46-8.32,1-1,1.34-2.88,1.42-4.39a62.18,62.18,0,0,0-.32-7.95C289.63,258.85,289.28,256.36,289,253.86Zm-22.54,20.47c-1.57.85-2.25,1.83-2.19,3.25.24,5.38.5,10.75.75,16.13l.63.2c.32-.66.9-1.31.9-2,0-2.33-.12-4.67-.24-7-.09-1.73-.55-3.48.5-5.56L273,286.7c2.09-.5,2.16-1.85,2.14-3.3-.1-5.21-.16-10.43-.26-15.65a4.64,4.64,0,0,0-.34-1.16c-1.67.64-1.38,1.88-1.37,3,0,3.2.07,6.39,0,9.59a15.08,15.08,0,0,1-.64,2.63Zm54.46-50.89A4,4,0,0,0,318.2,228c.13,1.68.37,3.36.49,5,.24,3.4.39,6.8.67,10.18a22.86,22.86,0,0,0,.91,3.54c1.3-1,2.18-1.52,3-2.19,2.67-2.27,5.23-4.67,8-6.84,1.5-1.18,1.81-2.37,1.14-4-3.71,1.73-5.6,5.78-10,7.26C321.85,234.94,321.39,229.31,320.91,223.44Zm-59.42,64.14-.55-.32L255.78,291c-1-2.72-.59-4.58,1.27-6.14,1.22-1,2.31-2.18,3.56-3.16a2.17,2.17,0,0,0,.69-2.95c-2.18,2-4.27,3.87-6.4,5.73a4.76,4.76,0,0,0-1.54,4.27c.15,2.33.09,4.68.22,7s.39,4.91.61,7.6c7.48-5.57,7.88-6,7.72-8.55l-5.81,4.33c-.81-3.15-.74-5.56,2-7.3a13.2,13.2,0,0,0,2.7-2.23A5.91,5.91,0,0,0,261.49,287.58Zm-24.13,29.17.67.39c7.13-4.5,9.25-9.21,6.58-15L239.42,306c-.75-2.91-.46-5,1.85-6.54a30.24,30.24,0,0,0,2.69-2.25,2.23,2.23,0,0,0,.65-3.11c-1.85,1.71-3.72,3.28-5.4,5-2.24,2.32-2.66,7.23-1,10.33l5.1-3.77c.81,2.92.26,4.87-1.92,6.3a11.39,11.39,0,0,0-2.48,2A16.79,16.79,0,0,0,237.36,316.75Zm-7.59-1.64c-.66-2.95-.69-5.21,1.85-6.82a10.6,10.6,0,0,0,2.33-2.16,9.67,9.67,0,0,0,1-2c-7.77,5.2-7.65,5.77-6.5,13.79l4.85-3.68c.74,4.27.67,4.47-2,6.69a15.56,15.56,0,0,0-2.15,1.89,11.2,11.2,0,0,0-1.05,2.54c6.92-4,9-9.06,6.19-14Zm-4.14-2.27-.58-.48c-1.58,1.5-3.2,3-4.72,4.51a2.82,2.82,0,0,0-.68,1.7c-.25,4.34-.44,8.67-.61,13,0,.36.3.73.59,1.37,1.24-.94,2.34-1.73,3.39-2.58a6.24,6.24,0,0,0,2.65-5.45C225.51,320.9,225.63,316.87,225.63,312.84ZM211.7,339.36c1.51-3.05-1-6.78,3.06-8.41.45,1.46.86,2.83,1.28,4.21l.63,0c.06-.53.36-1.22.13-1.59-1-1.59-.82-3.16-.51-4.9a25.42,25.42,0,0,0,.26-8.32,43.42,43.42,0,0,1-3.5,3.36,4.44,4.44,0,0,0-1.79,4.15c.1,3,0,6,.05,9A20.07,20.07,0,0,0,211.7,339.36Zm-6.26,4-.71-.39c0-2.74-.11-5.48,0-8.21a5.07,5.07,0,0,1,2.38-4.28,3.21,3.21,0,0,0,1.82-2.64c-3.25,2-5.34,4.23-4.79,8.16a39.6,39.6,0,0,1-.13,5.75c0,1.12.09,2.24.14,3.48,2.88-1.44,3.81-2.31,4.63-4.34Z"/><path d="M467.15,427.05a46.22,46.22,0,0,0,0-4.72c-1.24-11.57-2.55-23.12-3.83-34.68q-2.49-22.59-5-45.19c-1.52-13.78-3.06-27.57-4.51-41.36a8.63,8.63,0,0,0-2-4.58c-6.88-8.71-13.68-17.48-20.58-26.18a16.86,16.86,0,0,1-3.16-6.21A34.09,34.09,0,0,1,427,249.25a19.39,19.39,0,0,1,2.18-6.28c1.75-3,4.46-3.12,6.71-.45,9.71,11.5,19.43,23,29,34.56,3.6,4.33,4.83,9.71,5.61,15.12,2,13.62,3.84,27.26,5.73,40.89q5.28,37.89,10.54,75.77,5.58,40.27,11.16,80.53A47.89,47.89,0,0,1,496,511.21a25.4,25.4,0,0,1-3.33,6.49c-1.33,1.93-2.69,2-4.69.74a11.52,11.52,0,0,1-3.28-2.93q-18.76-27.11-37.39-54.32c-2.72-4-3.6-8.64-4.55-13.24a76.16,76.16,0,0,1-1.09-25.77,28.39,28.39,0,0,1,3.63-11.52c1.68-2.7,3.62-3.66,6.13-2.74a7.18,7.18,0,0,1,3.13,2.49c3.35,4.69,6.53,9.5,9.82,14.23C465,425.53,465.37,426.8,467.15,427.05Z"/><path d="M234.91,225.85c-1.32,1.14-2.17,1.73-2.85,2.47q-35.9,39.38-71.8,78.75a7.48,7.48,0,0,0-2.06,4.83c-.65,9.48-1.5,18.94-2.06,28.42a28.9,28.9,0,0,1-9,19.23,19.1,19.1,0,0,1-6.32,4.2,7.15,7.15,0,0,1-9.87-7.59c1.08-11.25,2.36-22.49,3.55-33.74.22-2,.57-4,.63-6,.19-6,3-10.85,6.74-15.21q30.72-35.62,61.55-71.17,19.79-22.87,39.57-45.75c5.08-5.85,10.74-11.05,17.83-14.34a32.08,32.08,0,0,1,8.51-2.58c4.29-.67,6.38,1.18,6.9,5.45,1.52,12.49,2.95,25,4.6,37.49a17.16,17.16,0,0,1-1.45,9.31c-4.48,10.41-12.12,17.93-21.77,23.56A28,28,0,0,1,245,247.23a17.39,17.39,0,0,1-3.82-.18c-4-.71-5.28-2.22-5.46-6.23-.17-3.73-.26-7.46-.42-11.19C235.21,228.61,235.07,227.6,234.91,225.85Z"/><path d="M148.73,515.75c1.07.45,1.72.78,2.4,1q42.42,12.87,84.82,25.75a8.35,8.35,0,0,0,5.58-.16c7.83-2.81,15.64-5.71,23.58-8.17s15.16-.67,21.69,4.31a6.73,6.73,0,0,1,1.11,1.15c2.37,3,1.81,6-1.59,7.65-2,1-4.16,1.65-6.25,2.44-10,3.76-20,7.44-29.93,11.31a16.48,16.48,0,0,1-10.95.37Q220.11,556,201,550.57q-51.73-14.66-103.46-29.32a50.5,50.5,0,0,1-7.86-2.67,15.77,15.77,0,0,1-5-3.81c-2-2.38-1.66-5.29.65-7.44A13.94,13.94,0,0,1,92.47,504c15.4-2.92,30.8-5.8,46.19-8.82a40.44,40.44,0,0,1,26.15,3.51,21.15,21.15,0,0,1,5.91,4.27c3.16,3.28,2,6.71-2.39,7.83-5.69,1.44-11.41,2.75-17.11,4.13C150.52,515.08,149.85,515.37,148.73,515.75Z"/><path d="M388.17,504.05c-2.18.39-3.81-.91-5.54-1.87a1.62,1.62,0,0,1-.81-.93c-.44-2.56-.82-5.14.11-7.65C388.6,494.39,389.7,496.05,388.17,504.05Z"/><path d="M380.66,476.08c.12-5.69.12-5.69,5.52-3.78,2.8,1,5.58,2,8.4,2.94a3.81,3.81,0,0,1,2.9,4c0,1,0,1.91,0,2.86,0,4.17-.69,4.62-4.71,3.12-1.69-.62-3.37-1.26-5.06-1.9-1-.37-2-.76-3-1.13C380.06,480.47,380.6,480.79,380.66,476.08Z"/><path d="M392.27,385.13c-.75.25-1.38.69-1.93.6-3.36-.51-6.72-1.06-10-1.8a2.73,2.73,0,0,1-1.46-1.84,13.19,13.19,0,0,1-.08-3.5c.05-1,.63-1.67,1.66-1.53,3.58.45,7.16.94,10.72,1.57.46.08,1,1.07,1.08,1.68A48.18,48.18,0,0,1,392.27,385.13Z"/><path d="M390.9,363.19l-4.94-.42v-4.93C391,357.32,391.5,357.83,390.9,363.19Z"/><path d="M378.69,357.32h4.13c.22,1.6.42,3.09.62,4.6-1.83.75-3.4.82-4.46-.27S378,358.8,378.69,357.32Z"/><path d="M389.75,334.28c.23,1.76.44,3.41.7,5.42a16.91,16.91,0,0,1-2.86.36c-2.44-.14-4.89-.34-7.31-.65s-2.82-.65-2.88-3.2c0-.73.1-1.47.17-2.49C381.63,333,385.55,334,389.75,334.28Z"/><path d="M240.74,472.36c-3.72,2.79-6.71,5.13-9.82,7.3a3.63,3.63,0,0,1-2.66.34c-1.83-.46-3.58-1.22-5.85-2a23.49,23.49,0,0,1,2.35-2.65c1.72-1.41,3.6-2.63,5.32-4a5.33,5.33,0,0,1,5.91-.88C237.31,471,238.66,471.5,240.74,472.36Z"/><path d="M204.34,466.75c-2.34,3.74-4.15,3-7.53.88C198.56,464.42,200.2,463.88,204.34,466.75Z"/><path d="M202.39,462.67c2.77-2.91,3.4-3,7.35-.69C207.56,465.37,205.75,465.54,202.39,462.67Z"/><path d="M189.48,455.21c-1.1,1.88-3,2.9-4.64,4.18-4,3.13-4,3.11-8.78.26a7.79,7.79,0,0,1,1.17-1.69c1.38-1.17,2.84-2.24,4.29-3.34C184.46,452.39,186.13,452.49,189.48,455.21Z"/><path d="M128.05,433.33c-2.29,1.87-4.28,3.58-6.37,5.16-1.89,1.44-3.28,0-5.31-1.09,2.48-2,4.61-3.9,6.86-5.59C124.17,431.11,124.75,431.4,128.05,433.33Z"/><path d="M112.32,430.77c2.38-2.53,2.38-2.53,5.43-1.26C116.63,432.45,115.55,432.74,112.32,430.77Z"/><path d="M348,201.79c.29,3.21.56,6,.8,8.88a27.63,27.63,0,0,0,.39,4.76,5,5,0,0,1-1.62,5.43c-2.5,2.27-5,4.51-7.59,6.79-1.78-.79-2-2.3-2.07-3.76-.26-3.28-.57-6.57-.59-9.86a6.7,6.7,0,0,1,1.09-4.16c2.45-2.77,5.25-5.23,8-7.77C346.61,201.87,347.14,201.94,348,201.79Z"/><path d="M311.29,244.86c1.28,6.5,0,8.82-6,11.29a40.2,40.2,0,0,1-.54-4.68,2.93,2.93,0,0,1,1-1.86C307.44,248.06,309.23,246.61,311.29,244.86Z"/><path d="M310.08,236.08c1.5,5.12-.43,8.67-5.2,10.5-1.62-2.83-.92-5.22,1.38-7.29C307.42,238.26,308.63,237.3,310.08,236.08Z"/><path d="M286.89,257.58c1.37,4.9,1,9.17,1,13.41a2.12,2.12,0,0,1-.46,1.45c-1.89,1.65-3.86,3.21-6.37,5.27-.35-2.71-.67-4.65-.82-6.6-.12-1.59.06-3.2,0-4.79a6.27,6.27,0,0,1,2.37-5.33C283.84,259.9,285.19,258.92,286.89,257.58Z"/><path d="M224.58,315.5c.22,3.78.5,7.47-.15,11.1-.32,1.75-2.09,2.5-3.88,3.32a8.12,8.12,0,0,1-.5-1.8c-.05-2.34-.05-4.68,0-7C220.06,318.13,221.07,316.85,224.58,315.5Z"/><path d="M215.69,323.15c1.22,3.86.72,5-2.84,7C211.73,326.1,212,325.36,215.69,323.15Z"/></svg>