<svg id="图层_1" data-name="图层 1" xmlns="http://www.w3.org/2000/svg" viewBox="0 0 595.28 841.89"><defs><style>.cls-1{fill:#030303;}.cls-2{fill:#686868;}</style></defs><path class="cls-1" d="M513.14,696.67c1-1.76,2-1.08,3.07-.14Z"/><path class="cls-2" d="M368.2,423.88c0-3.05.08-5.69,0-8.33-.15-4.26-.47-8.51-.6-12.77-.26-8.42-.4-16.85-.68-25.26-.37-11-.87-21.94-1.25-32.91-.28-8.1-.41-16.21-.69-24.3s-.69-16.4-1-24.6c-.11-3.29,0-6.59,0-10.32-3.11-.45-6.11-.93-9.12-1.31-16.07-2.05-32.13-4.14-48.21-6.06a12.21,12.21,0,0,1-8.49-5c-3.4-4.31-4.21-9.25-3.33-14.51,1.33-8.08,5.85-14.34,11.77-19.66a47.88,47.88,0,0,1,16-9.19c3.71-1.34,7.39-.67,11.08-.37,14.75,1.2,29.5,2.49,44.25,3.76q16.4,1.4,32.78,2.8a8,8,0,0,1,5.6,2.73,52.39,52.39,0,0,1,4.14,5.67,5.05,5.05,0,0,1,.61,2.42c.57,11.18,1.09,22.35,1.65,33.53.62,12.45,1.29,24.89,1.93,37.34l1.95,37.34q.63,12.29,1.29,24.57c.61,11.17,1.29,22.34,1.88,33.5.5,9.47.88,18.94,1.36,28.41.35,6.92.54,13.85,1.25,20.73s-1.67,12.63-5.69,17.8c-8.21,10.57-19.07,16.16-32.5,16.47a16.1,16.1,0,0,1-5.63-.87c-26.8-9.28-53.57-18.67-80.38-27.94a7,7,0,0,1-4.18-3.6c-5-9.33-4.51-18.77.06-27.93,5.65-11.32,14.86-18.21,27.49-20.17a19.34,19.34,0,0,1,8.54.55c8,2.35,16,4.55,24,6.77C365.28,423.46,366.52,423.58,368.2,423.88Zm41.88,8.38a18.36,18.36,0,0,0,.22-1.91c-.11-2.52-1.38-3.16-3.58-1.84-2,1.2-5.35.35-6.68-1.56a6.25,6.25,0,0,0-2.18-2.13,67.84,67.84,0,0,0-6.81-2.69,12.88,12.88,0,0,0-2.95-.3v14.83c7.65,4.09,20.33,9,23.27,9.08.3-1.93-.3-3.25-2.24-3.94-1.5-.53-2.95-1.2-4.42-1.82-4-1.64-4-1.64-3.76-5.81a12.72,12.72,0,0,1,.42-1.91Zm-22-32.52a28.74,28.74,0,0,0-.48,3.53c0,2.87.05,5.74.09,8.61.05,3.29.49,4.09,3.56,5.22,5.17,1.92,10.37,3.74,15.58,5.54,2.23.77,2.94.29,2.89-2.13-.08-3.49-.41-7-.53-10.48a3.76,3.76,0,0,0-2.82-3.76C400.47,404.21,394.6,402.09,388.06,399.74Zm.48,43.48a8.29,8.29,0,0,0-.21,1.18c.11,4.46.16,8.92.37,13.38.09,2.11,1.45,3.44,3.32,4.3,3.48,1.61,6.94,3.27,10.44,4.84,2.23,1,4.49,2,6.78,2.81,1.84.69,3.06.14,3-1.47-.08-4.68-.37-9.35-.55-14-.07-1.89-1.16-2.56-3.2-2.67v13.75a5.45,5.45,0,0,1-1.55-.09c-4.66-2.11-9.3-4.25-13.94-6.38a3.2,3.2,0,0,1-1.94-3.34c.1-3.09.06-6.19.12-9.28C391.24,444.53,390.71,443.35,388.54,443.22Zm-1.06-62.39c0,4.19-.08,8.11.07,12A3,3,0,0,0,389,395c2.64,1.1,5.38,2,8.12,2.85,1,.33,1.66-.27,1.7-1.3.07-1.71.05-3.41.06-5.12,0-1.45,0-2.9,0-4.32,4.91-.27,6.41,1,6.46,5.19,0,1.92,0,3.84.06,5.76.08,2.25.11,2.25,2.93,2.94a18,18,0,0,0,.13-2.18c-.16-2.75-.41-5.5-.54-8.25-.19-3.83-.41-4.18-4.12-5.37l-2.14-.64c-5.29-1.56-5.25-1.56-5.32,3.91,0,1.85.43,3.79-.66,5.78-1.09-.29-2.11-.5-3.08-.83-2.87-.94-2.9-1-2.9-4.08,0-2,0-4.05,0-6.07C389.78,382,389.48,381,387.48,380.83Zm8.29-16c0,1.59,0,2.73,0,3.88,0,1.5.05,3-.09,4.48a2,2,0,0,1-.94,1.47c-2.08.84-5.41-1.51-5.45-3.81-.05-2.55,0-5.11,0-7.72l-2.25-.76c0,3.77,0,7.38,0,11a2.56,2.56,0,0,0,1.86,2.67c2.12.71,4.26,1.4,6.43,1.91a9.87,9.87,0,0,0,2.91-.3c0-1.47,0-2.63,0-3.79,0-1.39,0-2.77,0-4.16,0-.94.35-1.67,1.43-1.77a4.5,4.5,0,0,1,4.63,4.18c.07,2.13,0,4.27.13,6.4.08,1.78,1.13,2.25,3,2-.18-3.82-.25-7.44-.6-11a3.49,3.49,0,0,0-1.63-2.53A20.75,20.75,0,0,0,395.77,364.87Zm10.11-11.52c-.17-3.6-.31-6.66-.48-9.71a4,4,0,0,0-.37-1.85c-.26-.39-1-.49-1.38-.68-.26.27-.38.35-.39.42-.08,2-.11,4-.25,6a3.09,3.09,0,0,1-.65,2c-1.36,1.13-5.34-.77-5.47-2.58-.12-1.59-.07-3.2,0-4.8s-.78-1.94-2.46-1.69c0,1.94.11,3.75,0,5.54s-.7,2.15-2.53,1.83c-2.69-.49-3.11-1-3.14-3.82,0-1.9,0-3.79,0-5.84l-2.44-.16c.47,3.8-.47,7.52.81,11.34Zm-7.6-26.79.11.82c-1.23.5-2.45,1.05-3.7,1.49-2.1.75-4.23,1.42-6.34,2.14-1,.35-2.06.73-2,2.12s1.1,1.42,2.05,1.59q4.38.79,8.77,1.56l7.63,1.36c.43-1.61-.27-2.05-1.37-2.24-2.4-.41-4.81-.81-7.2-1.29-1.46-.3-3.11-.18-4.54-1.75,1.32-.55,2.36-1,3.42-1.43,2.48-.94,5-1.87,7.46-2.74,1.38-.48,1.88-1.29,1.21-2.92L386.32,322c-.13.63-.27,1-.19,1C389.72,325.66,394.49,324.48,398.28,326.56Zm5.77-5.54c-.23-3.42-.48-6.14-.57-8.86a2.84,2.84,0,0,0-2.75-2.94c-4.2-.64-8.4-1.2-12.61-1.74-1.15-.15-2.39.21-2.36,1.5.09,2.9-.45,5.88.42,8.78Zm-1.22-22.79c-.24-2.8-.56-5-.58-7.17a2.45,2.45,0,0,0-2.38-2.75c-2.14-.39-4.12.13-6.21.41s-4.22-.94-6.38-1.3c-1.28-.22-2,.66-1.94,1.93.06,2,.23,4,.37,6.27C391.12,297.21,396.74,297.28,402.83,298.23ZM401.4,274.6c-.23-3.3-.3-5.82-.66-8.3-.07-.54-1.13-1.22-1.82-1.33a37.38,37.38,0,0,0-6.66-.58c-2.37.07-4.9-.8-7.28.8.36,2.57-.65,5.22.56,8.08Zm-16.27-13.53a50.31,50.31,0,0,0,15.5.93c-.16-2.82-.22-5.34-.51-7.82a2.06,2.06,0,0,0-1.48-1.29c-2.17-.14-4.36-.06-6.49-.06-.27,3.42-.27,3.42,1.4,4,.21-.9.43-1.8.63-2.63,2.6-.37,2.6-.37,4.66.9-.11,1.77-.23,3.6-.36,5.68a53.67,53.67,0,0,1-11.7-.95c-.13-2.42-.24-4.61-.35-6.81-1.85.24-2,.31-1.92,1.37C384.67,256.51,384.9,258.6,385.13,261.07Zm0,21.28.16,1.2c5.47.35,10.86,1.78,16.69,1.15-.19-2.61-.28-4.82-.58-7-.06-.43-.94-.75-1.75-1.34,0,1.67,0,2.82,0,4,.05,2.37-.11,2.67-2.42,2.53-3.48-.21-6.95-.64-10.43-.91A5.76,5.76,0,0,0,385.14,282.35Z"/><path class="cls-2" d="M343.22,355.76a31,31,0,0,1-6.37,17.44c-1.71,2.26-4.18,3.94-6.34,5.84-23.44,20.64-46.82,41.36-70.41,61.84-4.94,4.29-11.06,6-17.6,3.71-47.34-16.49-94.61-33.14-142-49.42-8.14-2.79-10.31-8.92-10-16.11a34.33,34.33,0,0,1,3.87-13.77,14.77,14.77,0,0,1,3.12-4c5.43-5.12,11-10.15,16.45-15.21l21.69-19.89c7.39-6.77,14.65-13.69,22.22-20.26,4.13-3.58,9.26-4.29,14.44-2.53,4.94,1.68,7.5,5.64,8.21,10.57,1.43,9.9-1.94,18.31-9,25.17-6,5.88-12.36,11.46-18.56,17.16-2.17,2-2,3,.83,3.87q18.81,5.79,37.64,11.51l56.32,17.18c.61.19,1.25.32,1.84.55a3.75,3.75,0,0,0,4.35-.88c5.76-5.23,11.61-10.37,17.43-15.54,11.47-10.19,22.87-20.49,34.47-30.55a26.32,26.32,0,0,1,19.84-6.53C336.34,336.77,343.22,344.38,343.22,355.76ZM247.64,416c3.22-2.37,5.9-4.1,8.27-6.17,1.92-1.67,3.78-1.63,5.89-.82,2.28.88,4.58,1.73,6.83,2.67,1.46.62,2.3.1,3.07-1.25-3.31-1.16-6.49-2.06-9.49-3.38a7,7,0,0,0-7.47,1c-2.6,1.86-5.17,3.76-7.68,5.73a38.15,38.15,0,0,0-3.14,3.13c4.39,1.71,8.19,3.3,12.08,4.66a3.88,3.88,0,0,0,3-.41c2.14-1.44,4.08-3.17,6.1-4.79l-.19-.7c-2.52-.05-4.55-3.35-7.86-.82l3.58,2c-1.75,2.33-3.44,3.33-5,2.72C253.19,418.61,250.84,417.46,247.64,416ZM228.25,411c3.49,1.31,6.8,2.71,10.23,3.73a4.69,4.69,0,0,0,3.53-.8c3.3-2.33,6.46-4.86,9.6-7.4a9.83,9.83,0,0,0,1.54-2.36c-3.55-1.27-6.63-2.4-9.73-3.46a3.9,3.9,0,0,0-3.88.71c-1.59,1.24-3.49,2.12-4.93,3.5C232.59,406.82,229.62,407.78,228.25,411Zm-27.14-10.25c2.88,1.06,5,1.8,7,2.59,3.25,1.25,6.92,0,8.15-3.2a2.74,2.74,0,0,1,1.87-1.82,10.32,10.32,0,0,0,5.32-4.25,43.78,43.78,0,0,0-8.46-3,3.07,3.07,0,0,0-2,.76C209.22,394.6,205.5,397.42,201.11,400.72ZM203,386.87c-3-1.12-5.21-1.85-7.33-2.77a3.42,3.42,0,0,0-4,.56c-2.42,2.08-5,3.95-7.53,5.91-.87.69-1.72,1.41-2.54,2.08.24.35.28.48.36.52.86.41,1.73.81,2.6,1.19,6,2.59,6,2.61,11.12-1.42C197.92,391.14,200.14,389.21,203,386.87Zm-13.55-4.31-.42-.84a7.42,7.42,0,0,0-1.82.66c-2,1.45-3.87,3-5.83,4.48a16.54,16.54,0,0,1-2.3,1.12c1-3.08,1.74-5.58,2.5-8-1.43-1.76-2.57-.69-3.62.16-2.64,2.16-5.24,4.36-7.83,6.57a17.14,17.14,0,0,0-1.36,1.46c4-.32,5.74-4.07,9.33-5.56-.15,1-.19,1.66-.37,2.32-.44,1.54-1,3-1.38,4.58a1.93,1.93,0,0,0,.38,1.64,1.79,1.79,0,0,0,1.68-.06C182.09,388.29,185.75,385.41,189.42,382.56Zm-17.88-.71-4.71-2.4c1.33-2.12,2.82-2.63,4.81-1.74a13.54,13.54,0,0,0,3,1.05,7,7,0,0,0,2.19-.29l0-.69c-2.19-.75-4.35-1.59-6.57-2.22a3,3,0,0,0-2.32.27c-3.31,2.65-6.51,5.43-9.83,8.23,4.94,2.74,7,3.24,8.81,2.1l-5.09-2.57c2.5-2.88,2.48-2.85,5.52-1.71C168.57,382.33,169.8,383.41,171.54,381.85Zm-16.37-5.63-5.07-2.48c1.5-2.15,3.08-2.75,5.16-1.79a25.53,25.53,0,0,0,2.37,1c1,.34,1.89.4,2.48-.7-7.49-3.41-9.53-3.06-12.66,2.27l4.67,2.38c-1.57,2.08-3.08,2.54-5,1.47a9.08,9.08,0,0,0-2.65-1.08c-.55-.11-1.21.33-2.17.64C149.66,381.49,149.66,382.08,155.17,376.22ZM215.35,406c3.16,1.23,5.8,2.3,8.47,3.29a1.58,1.58,0,0,0,2.33-1.05c-1.89-1.72-4.89-1-6.42-3.56l10.5-8.25c-1.66-1.64-2.89-.42-4,.43-3,2.24-5.88,4.55-8.79,6.88A23.79,23.79,0,0,0,215.35,406Zm-66.49-36.71.14-.66c-5.7-3.41-7.33-3.46-11.42,2.16l4.49,2.27c-1.52,2-3,2.39-5,1.51-1.24-.54-2.57-1.47-4.19-.54,5.13,3.75,8.63,3.19,11.48-1.82L140,370.14c1.48-2.24,3.07-2.87,5.32-1.77A18.64,18.64,0,0,0,148.86,369.33Zm-26,1.38c2.3.92,3.83,1.64,5.44,2.15a2.81,2.81,0,0,0,2.12-.17,46,46,0,0,0,9.16-7.75c-2.06-.72-3.72-1.42-5.45-1.86a3.15,3.15,0,0,0-2.39.31C128.92,365.58,126.21,367.94,122.88,370.71Zm-3-1.5c1,.91,1.57.45,1.8-.36.5-1.71,1.58-2.45,3.25-3.07a10.18,10.18,0,0,0,4.81-4.31,23.13,23.13,0,0,1-3.64-1.2c-1.61-.86-2.77-.36-4,.73-2,1.78-4,3.45-6,5.2a8.56,8.56,0,0,0-1,1.28l.45.47c.94-.77,1.91-1.51,2.82-2.32,1.29-1.17,2.38-1,3.48.34Zm.9-9.67.23-1a33.9,33.9,0,0,0-4.14-1.35,3.21,3.21,0,0,0-2.39.39c-2.65,2.08-5.17,4.32-8,6.74,2.36,1,4,2.32,6.93,1.74l-4.91-2.29c1.94-1.63,3.63-2.9,5.14-4.37a3.34,3.34,0,0,1,4-.83A29.66,29.66,0,0,0,120.81,359.54Z"/><path class="cls-2" d="M359.14,169.16c-2,1.78-3.73,3.21-5.37,4.69l-37.31,33.62Q298.17,224,279.91,240.52c-10.77,9.72-21.52,19.46-32.34,29.11-1.29,1.14-1.9,2.17-1.43,3.83a6.07,6.07,0,0,1,.06,1.6q.17,19.68.33,39.38a69.35,69.35,0,0,0,.22,7.36,23.37,23.37,0,0,1-2.44,13.33c-4.18,8.5-10,15.35-19,19.1-5.18,2.17-10.58,2.72-15.87.47a24.85,24.85,0,0,1-5.55-3.67,7.06,7.06,0,0,1-2.51-5.91c-.1-12.69-.37-25.39-.61-38.09-.19-10.77-.47-21.55-.61-32.32a16.21,16.21,0,0,1,5.38-12.83c6.86-6.25,13.67-12.55,20.5-18.83l21.67-19.92,24.73-22.74,21.67-19.93q10.71-9.86,21.45-19.68c7.22-6.65,14.4-13.33,21.62-20q14-12.89,28.06-25.74c5.89-5.41,11.82-10.78,17.64-16.27,5.45-5.14,15.93-7.3,22.72-4.22,4.88,2.21,7.85,5.82,8.07,11.6.44,11.29,1.25,22.56,1.84,33.83.38,7.13.65,14.27,1,21.4.22,5,.48,10,.62,15a7.16,7.16,0,0,1-.6,3.39c-6.9,13.35-17.18,22.81-32,26.39-6.37,1.54-12.82,1-18.24-3.4-2.87-2.35-5-5.15-5-9.2,0-6-.36-11.93-.57-17.89a25.45,25.45,0,0,0-.27-3.82A13.38,13.38,0,0,0,359.14,169.16Zm8.2-23a20.93,20.93,0,0,0,3.05-1.68c4.08-3.41,8.11-6.89,12.17-10.34,1.06-.89,2.21-1.68,3.23-2.62a5.87,5.87,0,0,0,2.19-5.39c-.51-3.2-1.1-6.39-1.71-9.94-3,2.6-5.77,5-8.56,7.26-1.33,1.09-1.16,2.28-.68,3.72,2.67-.82,3.89-4,7-4,.1.87.16,1.4.21,1.92.39,3.5-.56,6.27-4,7.94a10,10,0,0,0-2.59,2.33c-2.06,2.18-4.73,3.42-7.64,5.47-.43-4.65-.59-8.67-1.24-12.61s.88-6.56,3.59-8.93l1.91-1.7,8.9-7.82c1.31-1.15,2-2.43.71-4.39-3.38,3.22-6.59,6.31-9.85,9.36-2,1.82-4,3.58-6,5.32a7.06,7.06,0,0,0-2.35,4.37c-.77,4.17,0,8.27.29,12.39C366.24,139.71,366.83,142.61,367.34,146.16Zm-9-16.83-7.26,6.82c-2,1.89-4.12,3.71-6,5.71a4.4,4.4,0,0,0-1.14,2.8q.19,8.43.73,16.85c.07,1.14.85,2.24,1.4,3.58,1-.77,1.72-1.24,2.36-1.78,3.56-3,7-6.18,10.7-9.09a7.62,7.62,0,0,0,3.06-7.81c-.71-4.72-1.2-9.48-1.57-14.24C360.49,130.73,359.82,130.11,358.34,129.33Zm-36.16,34.19a18.43,18.43,0,0,0-2.13,1.42c-1.25,1.16-2.24,2.69-3.66,3.55-4.62,2.81-5.75,6.9-5.2,11.95.47,4.39.6,8.82.89,13.36a4.3,4.3,0,0,0,1.11-.39c3.18-2.67,6.41-5.28,9.46-8.1a5,5,0,0,0,1.67-3.3c-.11-2.8.7-6-2.51-7.91C323.79,170.62,323,167.28,322.18,163.52Zm-24,22.94-.78-.28c-3,2.71-5.94,5.38-8.84,8.15a3.12,3.12,0,0,0-.78,2c-.06,3.49-.06,7,0,10.47.07,2.37.36,4.74.61,7.82,3.49-3,6.66-5.48,9.46-8.32,1-1,1.34-2.89,1.42-4.4a62.25,62.25,0,0,0-.32-8C298.82,191.45,298.47,189,298.19,186.46Zm-22.55,20.47c-1.56.85-2.25,1.82-2.19,3.25.24,5.37.5,10.75.75,16.12l.63.21c.32-.66.9-1.31.91-2,0-2.34-.13-4.67-.25-7-.09-1.73-.55-3.49.5-5.56,2.24,2.64,4.25,5,6.18,7.32,2.1-.5,2.16-1.85,2.14-3.3-.1-5.22-.16-10.44-.25-15.65a5,5,0,0,0-.35-1.16c-1.67.64-1.38,1.88-1.37,3,0,3.19.07,6.39,0,9.58a14.87,14.87,0,0,1-.64,2.63ZM330.1,156a4,4,0,0,0-2.71,4.51c.13,1.69.38,3.37.5,5.06.24,3.39.38,6.79.66,10.18a23.15,23.15,0,0,0,.91,3.54c1.3-1,2.18-1.53,3-2.2,2.67-2.27,5.23-4.67,8-6.83,1.49-1.19,1.8-2.38,1.13-4-3.71,1.72-5.6,5.78-10,7.26C331,167.54,330.58,161.91,330.1,156Zm-59.41,64.14-.56-.33L265,223.58c-1-2.71-.59-4.57,1.27-6.13,1.22-1,2.31-2.19,3.56-3.16a2.17,2.17,0,0,0,.69-2.95c-2.18,1.95-4.27,3.87-6.4,5.73a4.76,4.76,0,0,0-1.54,4.27c.16,2.33.1,4.67.23,7s.38,4.9.6,7.6c7.48-5.57,7.88-6,7.72-8.55l-5.81,4.32c-.81-3.14-.74-5.55,2-7.29A13.41,13.41,0,0,0,270,222.2,6.22,6.22,0,0,0,270.69,220.18Zm-24.14,29.17.67.38c7.13-4.49,9.26-9.21,6.59-15l-5.2,3.85c-.74-2.91-.45-5,1.85-6.53a28.87,28.87,0,0,0,2.69-2.25,2.24,2.24,0,0,0,.65-3.12c-1.85,1.71-3.71,3.28-5.4,5-2.24,2.32-2.65,7.22-.94,10.33l5.09-3.77c.81,2.92.26,4.87-1.92,6.29a11.43,11.43,0,0,0-2.48,2A16.39,16.39,0,0,0,246.55,249.35ZM239,247.71c-.66-3-.68-5.21,1.85-6.82a10.64,10.64,0,0,0,2.33-2.17,9.85,9.85,0,0,0,1-2c-7.77,5.19-7.65,5.76-6.5,13.78l4.85-3.67c.74,4.26.67,4.47-2,6.68a15.61,15.61,0,0,0-2.14,1.9,11.21,11.21,0,0,0-1.06,2.53c6.92-4,9-9.06,6.19-14Zm-4.14-2.27-.58-.48c-1.58,1.49-3.2,2.95-4.72,4.51a2.8,2.8,0,0,0-.68,1.7c-.25,4.33-.44,8.67-.61,13,0,.35.3.72.6,1.37,1.23-.94,2.33-1.73,3.38-2.58a6.27,6.27,0,0,0,2.66-5.45C234.7,253.5,234.82,249.47,234.82,245.44ZM220.89,272c1.51-3-1-6.78,3.07-8.4.44,1.45.85,2.83,1.27,4.21l.63,0c.06-.54.36-1.23.13-1.59-1-1.59-.82-3.16-.51-4.9a25.48,25.48,0,0,0,.26-8.33,42.18,42.18,0,0,1-3.5,3.37,4.45,4.45,0,0,0-1.79,4.15c.11,3,0,6,.05,9A19.56,19.56,0,0,0,220.89,272Zm-6.25,4-.72-.39c0-2.74-.1-5.48,0-8.21a5.12,5.12,0,0,1,2.38-4.28,3.22,3.22,0,0,0,1.83-2.63c-3.26,2-5.34,4.23-4.8,8.15a38.2,38.2,0,0,1-.13,5.75c0,1.12.09,2.24.14,3.49,2.88-1.45,3.81-2.32,4.63-4.34Z"/><path class="cls-2" d="M476.34,359.65a46.4,46.4,0,0,0,0-4.73c-1.24-11.56-2.55-23.12-3.83-34.68q-2.49-22.59-5-45.18c-1.52-13.79-3-27.57-4.51-41.37a8.56,8.56,0,0,0-2-4.57c-6.87-8.72-13.68-17.48-20.57-26.18a16.81,16.81,0,0,1-3.17-6.21,34.11,34.11,0,0,1-1.11-14.88,19.23,19.23,0,0,1,2.18-6.28c1.75-3,4.46-3.12,6.71-.45,9.71,11.5,19.43,23,29,34.56,3.59,4.33,4.82,9.7,5.61,15.12,2,13.62,3.83,27.26,5.72,40.89q5.28,37.88,10.54,75.77,5.6,40.26,11.16,80.53a47.91,47.91,0,0,1-1.92,21.82,25.56,25.56,0,0,1-3.33,6.49c-1.33,1.92-2.68,2-4.69.74a11.83,11.83,0,0,1-3.28-2.93Q475.14,421,456.51,393.79c-2.71-4-3.6-8.65-4.55-13.24a76.21,76.21,0,0,1-1.09-25.78c.55-4,1.44-8,3.63-11.51,1.68-2.71,3.62-3.66,6.13-2.74a7.11,7.11,0,0,1,3.13,2.49c3.36,4.68,6.53,9.5,9.82,14.23C474.2,358.12,474.56,359.39,476.34,359.65Z"/><path class="cls-2" d="M244.1,158.44a34.67,34.67,0,0,0-2.84,2.48q-35.91,39.38-71.81,78.75a7.45,7.45,0,0,0-2.06,4.83c-.65,9.47-1.5,18.94-2.06,28.41-.45,7.67-3.71,14-9,19.24a19.07,19.07,0,0,1-6.32,4.19,7.14,7.14,0,0,1-9.87-7.58c1.08-11.26,2.36-22.49,3.56-33.74.21-2,.56-4,.62-6.05.2-6,3-10.85,6.74-15.2q30.74-35.62,61.55-71.18,19.78-22.87,39.57-45.75c5.08-5.84,10.74-11,17.83-14.34a32.45,32.45,0,0,1,8.51-2.58c4.3-.66,6.38,1.18,6.9,5.45,1.53,12.5,2.95,25,4.61,37.49a17.19,17.19,0,0,1-1.46,9.32c-4.47,10.41-12.12,17.92-21.76,23.55a28,28,0,0,1-12.67,4.09,16.8,16.8,0,0,1-3.82-.18c-4-.7-5.28-2.22-5.46-6.22-.17-3.73-.26-7.47-.42-11.2C244.4,161.2,244.26,160.19,244.1,158.44Z"/><path class="cls-2" d="M157.92,448.35c1.07.44,1.72.78,2.4,1q42.42,12.86,84.83,25.75a8.32,8.32,0,0,0,5.57-.17c7.83-2.8,15.64-5.7,23.58-8.16s15.16-.67,21.69,4.31a6.65,6.65,0,0,1,1.11,1.14c2.37,3,1.81,6-1.58,7.66-2,1-4.16,1.65-6.26,2.44-10,3.76-20,7.43-29.93,11.31a16.6,16.6,0,0,1-10.95.37q-19.08-5.43-38.18-10.82-51.73-14.66-103.46-29.33a50.5,50.5,0,0,1-7.86-2.67,15.63,15.63,0,0,1-5-3.81c-2-2.38-1.66-5.28.65-7.43a13.86,13.86,0,0,1,7.15-3.34c15.4-2.92,30.81-5.81,46.19-8.82a40.48,40.48,0,0,1,26.15,3.5,21.39,21.39,0,0,1,5.91,4.28c3.16,3.28,2,6.71-2.39,7.83-5.69,1.43-11.4,2.74-17.1,4.13C159.71,447.68,159,448,157.92,448.35Z"/><path class="cls-2" d="M397.36,436.64c-2.18.39-3.81-.9-5.54-1.87a1.64,1.64,0,0,1-.81-.92c-.44-2.56-.82-5.14.11-7.66C397.79,427,398.89,428.64,397.36,436.64Z"/><path class="cls-2" d="M389.85,408.67c.12-5.69.12-5.69,5.52-3.77,2.8,1,5.58,2,8.4,2.94a3.79,3.79,0,0,1,2.9,4c0,1,0,1.91,0,2.87,0,4.16-.69,4.61-4.71,3.12L396.9,416c-1-.37-2-.77-3-1.14C389.25,413.06,389.79,413.39,389.85,408.67Z"/><path class="cls-2" d="M401.47,317.73c-.76.25-1.39.68-1.94.6-3.36-.51-6.72-1.06-10-1.81a2.71,2.71,0,0,1-1.46-1.84,13.11,13.11,0,0,1-.08-3.49c.06-1,.63-1.67,1.66-1.54,3.58.46,7.17.94,10.72,1.58.47.08,1,1.06,1.09,1.67C401.57,314.48,401.47,316.08,401.47,317.73Z"/><path class="cls-2" d="M400.09,295.78l-4.94-.41v-4.94C400.17,289.92,400.69,290.42,400.09,295.78Z"/><path class="cls-2" d="M387.88,289.91H392c.22,1.61.42,3.09.62,4.61-1.83.74-3.4.82-4.46-.28S387.2,291.4,387.88,289.91Z"/><path class="cls-2" d="M398.94,266.88c.23,1.76.44,3.4.7,5.42a16.82,16.82,0,0,1-2.86.35c-2.44-.14-4.88-.34-7.31-.64s-2.82-.66-2.87-3.2c0-.74.09-1.48.16-2.5C390.83,265.58,394.75,266.63,398.94,266.88Z"/><path class="cls-2" d="M249.93,405c-3.72,2.8-6.71,5.14-9.82,7.3a3.63,3.63,0,0,1-2.66.35c-1.83-.46-3.58-1.23-5.85-2a23.49,23.49,0,0,1,2.35-2.65c1.72-1.41,3.6-2.63,5.32-4a5.31,5.31,0,0,1,5.91-.88C246.5,403.57,247.85,404.1,249.93,405Z"/><path class="cls-2" d="M213.53,399.34c-2.33,3.75-4.15,3-7.53.89C207.75,397,209.39,396.47,213.53,399.34Z"/><path class="cls-2" d="M211.58,395.26c2.77-2.91,3.4-3,7.35-.69C216.75,398,214.94,398.14,211.58,395.26Z"/><path class="cls-2" d="M198.67,387.8c-1.09,1.89-3,2.91-4.64,4.19-4,3.12-4,3.1-8.77.26a7.42,7.42,0,0,1,1.17-1.7c1.37-1.17,2.84-2.24,4.28-3.33C193.65,385,195.32,385.09,198.67,387.8Z"/><path class="cls-2" d="M137.24,365.93c-2.29,1.87-4.28,3.57-6.37,5.16-1.89,1.43-3.28,0-5.3-1.09,2.47-2,4.6-3.9,6.85-5.59C133.36,363.7,133.94,364,137.24,365.93Z"/><path class="cls-2" d="M121.51,363.37c2.38-2.53,2.38-2.53,5.43-1.27C125.82,365,124.74,365.33,121.51,363.37Z"/><path class="cls-2" d="M357.19,134.39c.29,3.2.56,6,.8,8.88a27.72,27.72,0,0,0,.39,4.76,5,5,0,0,1-1.62,5.42c-2.5,2.28-5,4.52-7.59,6.8-1.78-.8-1.95-2.31-2.07-3.77-.26-3.28-.57-6.57-.59-9.85a6.7,6.7,0,0,1,1.09-4.16c2.45-2.78,5.25-5.23,8-7.77C355.8,134.47,356.33,134.54,357.19,134.39Z"/><path class="cls-2" d="M320.49,177.45c1.27,6.51,0,8.82-6,11.29a42.59,42.59,0,0,1-.54-4.67,3,3,0,0,1,1-1.86C316.63,180.65,318.42,179.21,320.49,177.45Z"/><path class="cls-2" d="M319.27,168.68c1.51,5.11-.43,8.67-5.2,10.49-1.62-2.82-.92-5.22,1.38-7.28C316.61,170.86,317.82,169.89,319.27,168.68Z"/><path class="cls-2" d="M296.08,190.18c1.37,4.9,1,9.16,1,13.41a2.18,2.18,0,0,1-.47,1.45c-1.89,1.65-3.86,3.21-6.37,5.27-.35-2.71-.67-4.65-.82-6.6-.12-1.59.06-3.2,0-4.79a6.26,6.26,0,0,1,2.38-5.34C293,192.49,294.38,191.52,296.08,190.18Z"/><path class="cls-2" d="M233.78,248.09c.21,3.79.49,7.48-.16,11.11-.32,1.75-2.09,2.5-3.87,3.32a7.61,7.61,0,0,1-.51-1.81c-.05-2.34-.05-4.68,0-7C229.25,250.73,230.26,249.44,233.78,248.09Z"/><path class="cls-2" d="M224.88,255.74c1.23,3.86.72,5-2.83,7C220.92,258.69,221.2,258,224.88,255.74Z"/></svg>